**ABCDEFGHIJKLMNOPQRSTUVWXYZabcdefghijklmnopqrstuvwxyz**************************
**PARASOLID !"#$%&'()*+,-./:;<=>?@[\]^_`{|}~0123456789**************************
**PART1;
MC=AMD64;
MC_MODEL=Intel64 Family 6 Model 60 Stepping 3, GenuineIntel;
MC_ID=unknown;
OS=Windows_NT;
OS_RELEASE=unknown;
FRU=Parasolid Version 27.0, build 199, 11-19-2014;
APPL=SOLIDWORKS 2015-2015063;
SITE=;
USER=unknown;
FORMAT=text;
GUISE=transmit;
KEY=monicaBASEfinalforreal;
FILE=monicaBASEfinalforreal.x_t;
DATE=Thu Oct 01 13:57:40 2015;
**PART2;
SCH=SCH_2700199_26105;
USFLD_SIZE=0;
**PART3;
**END_OF_HEADER*****************************************************************
T51 : TRANSMIT FILE created by modeller version 270019923 SCH_2700199_26105_1300
6196 0 12 30 CCCCCCCCCCCCCDI5 owner1040 0 CCCCCCCCCA13 boundary_mesh1006 0 A16 i
ndex_map_offset0 0 1 dA9 index_map82 0 A17 node_id_index_map82 0 A20 schema_embe
dding_map82 0 A5 child12 0 A14 lowest_node_id0 0 1 dZ1 472 0 2 0 0 0 0 1e3 1e-8
 0 3 0 1 0 1 1 4 5 6 7 8 9 10 0 0 0 0 0 0 0 70 11 CI9 list_type0 0 1 uI10 notran
smit0 0 1 lCCCDCCDI12 finger_index0 0 1 dI12 finger_block1012 0 CZ2 0 4 T1 0 0 2
 20 1 11 11 13 255 4 174 0 1 0 12 0 0 13 0 51 255 5 173 0 12 14 0 0 --.024228645
83305435 .0195408322593714 .002 0 0 -1 .003 -1 0 0 31 255 6 328 0 9 15 0 0 -.006
77135416694567 -.02275756155695435 .002 0 0 -1 -1 0 0 5e-4 29 255 7 126 0 16 17
 0 -.02422864583305435 .0225408322593714 0 19 8 CCCCCCCA5 owner12 0 Z8 52 0 1 13
 0 18 V0 16 255 9 325 0 ?19 0 20 6 0 0 1 18 255 10 49 0 21 0 22 23 ?1 17 255 21
 0 24 25 26 10 27 28 0 29 +18 22 46 0 26 10 30 31 ?1 29 23 51 0 10 31 32 -.02422
864583305435 .0225408322593714 .002 29 31 48 0 22 33 23 .00477135416694563 .0225
408322593714 .002 29 32 133 0 34 23 35 -.02722864583305435 .01954083225937135 0
 18 34 116 0 36 37 0 32 ?1 29 35 132 0 37 32 38 -.02722864583305435 -.0227575615
5695435 0 18 37 115 0 39 40 34 35 ?1 29 38 131 0 40 35 41 -.0248263287920716 -.0
322613268357226 0 18 40 114 0 42 43 37 38 ?1 29 41 130 0 43 38 44 .0059045991034
3864 -.031862127655978 0 18 43 113 0 45 46 40 41 ?1 29 44 129 0 46 41 47 .007771
35416694567 -.0234249819257466 0 18 46 112 0 48 49 43 44 ?1 29 47 128 0 49 44 17
 .00777135416694565 .01954083225937135 0 18 49 111 0 50 51 46 47 ?1 29 17 127 0
 51 47 7 .00477135416694563 .0225408322593714 0 18 51 110 0 52 16 49 17 ?1 17 52
 0 53 54 55 51 56 57 0 58 +18 16 109 0 59 60 51 7 ?1 17 59 0 61 29 58 16 62 63 0
 64 +18 60 28 0 65 66 16 67 ?1 17 65 0 68 69 70 60 71 72 0 25 -18 66 31 0 71 73
 60 74 ?1 29 67 30 0 60 0 74 -.02722864583305435 .01954083225937135 .002 29 74 3
3 0 66 67 75 -.02722864583305435 -.02275756155695435 .002 29 75 36 0 73 74 76 -.
0248263287920716 -.0322613268357226 .002 18 73 34 0 77 78 66 75 ?1 29 76 39 0 78
 75 79 .00590459910343864 -.031862127655978 .002 18 78 37 0 80 81 73 76 ?1 29 79
 42 0 81 76 33 .00777135416694567 -.0234249819257466 .002 18 81 40 0 82 30 78 79
 ?1 29 33 45 0 30 79 31 .00777135416694565 .01954083225937135 .002 18 30 43 0 83
 22 81 33 ?1 17 83 0 24 26 82 30 84 85 0 86 +15 255 24 3 0 25 87 0 17 26 0 24 21
 83 22 88 89 0 54 +17 82 0 24 83 80 81 90 91 0 92 +17 84 0 93 94 86 81 83 85 0 0
 -16 85 19 0 ?83 89 91 95 0 0 1 17 86 0 93 84 50 30 55 96 0 88 -15 93 146 0 50 9
7 0 17 50 0 93 86 94 49 98 99 0 55 +17 55 0 53 52 88 49 86 96 0 56 +16 96 136 0
 ?55 100 101 102 0 0 1 17 88 0 53 55 54 30 26 89 0 0 -15 53 144 0 52 103 0 17 54
 0 53 88 52 22 58 101 0 27 -16 89 22 0 ?26 28 85 104 0 0 1 16 28 25 0 ?21 105 89
 106 0 0 1 31 104 23 0 89 95 106 0 +.00477135416694565 .0195408322593714 .002 0
 0 1 -1 0 0 .003 30 255 95 20 0 85 107 104 0 +.00777135416694565 .01954083225937
135 .002 -322996039316795e-30 1 0 30 106 26 0 28 104 108 0 +-.02422864583305435
 .0225408322593714 .002 -1 0 0 31 108 125 0 109 106 110 0 +-.02422864583305435 .
0195408322593714 0 0 0 1 -1 0 0 .003 16 109 105 0 ?111 112 113 108 0 0 1 30 110
 124 0 112 108 114 0 +-.02722864583305435 .01954083225937135 0 820231370254662e-
31 -1 0 16 112 101 0 ?39 115 109 110 0 0 1 31 114 123 0 115 110 116 0 +-.0072286
4583305405 -.0227575615569549 0 0 0 1 -1 0 0 .02 16 115 97 0 ?42 117 112 114 0 0
 1 134 255 116 122 0 117 114 118 0 +119 120 16 117 93 0 ?45 121 115 116 0 0 1 31
 118 121 0 121 116 122 0 +-.01222864583305432 -.0234249819257472 0 0 0 1 1 0 0 .
02 136 255 119 3 5 3 3 6 FFF1 123 124 125 135 255 120 2 0 45 255 15 123 -.024826
32879207145 -.0322613268357225 0 -.01983760638641985 -.04149871356508875 0 -.009
89750648112148 -.0509522882785083 0 .001392273583831154 -.04156008790182565 0 .0
0590459910343864 -.031862127655978 0 127 255 3 124 4 1 4 128 255 3 125 .06863762
97418599 .496242407368661 .937653652631564 16 121 89 0 ?48 99 117 118 0 0 1 30 1
22 120 0 99 118 126 0 +.00777135416694565 .01954083225937135 0 -322996039316795e
-30 1 0 16 99 85 0 ?50 57 121 122 0 0 1 31 126 119 0 57 122 127 0 +.004771354166
94565 .0195408322593714 0 0 0 1 -1 0 0 .003 16 57 81 0 ?52 63 99 126 0 0 1 30 12
7 118 0 63 126 128 0 +-.02422864583305435 .0225408322593714 0 -1 0 0 16 63 77 0
 ?59 129 57 127 0 0 1 30 128 158 0 105 127 130 0 +-.02422864583305435 .022540832
2593714 .002 0 0 -1 16 105 134 0 ?64 101 28 128 0 0 1 30 130 159 0 101 128 102 0
 +.00477135416694563 .0225408322593714 .002 0 0 -1 16 101 135 0 ?58 96 105 130 0
 0 1 30 102 160 0 96 130 131 0 +.00777135416694565 .01954083225937135 .002 0 0 -
1 30 131 161 0 100 102 132 0 +.00777135416694567 -.0234249819257466 .002 0 0 -1
 16 100 137 0 ?94 133 96 131 0 0 1 30 132 162 0 133 131 134 0 +.0059045991034386
4 -.031862127655978 .002 0 0 -1 16 133 138 0 ?135 136 100 132 0 0 1 30 134 163 0
 136 132 137 0 +-.0248263287920716 -.0322613268357226 .002 0 0 -1 16 136 139 0 ?
138 139 133 134 0 0 1 30 137 164 0 139 134 140 0 +-.02722864583305435 -.02275756
155695435 .002 0 0 -1 16 139 140 0 ?141 142 136 137 0 0 1 30 140 165 0 142 137 1
43 0 +-.02722864583305435 .01954083225937135 .002 0 0 -1 16 142 141 0 ?69 144 13
9 140 0 0 1 31 143 243 0 144 140 15 0 --.00972864583305435 .02154083225937135 .0
02 0 0 -1 -1 0 0 5e-4 16 144 240 0 ?145 20 142 143 0 0 1 31 15 295 0 20 143 6 0
 --.02622864583305435 -.02275756155695435 .002 0 0 -1 -1 0 0 5e-4 16 20 292 0 ?1
46 9 144 15 0 0 1 17 146 0 147 146 146 0 148 20 0 0 +15 147 309 0 146 149 0 17 1
48 0 150 148 148 0 146 20 0 0 -15 150 294 0 148 87 151 14 255 87 1 152 ?153 154
 155 4 156 -0 0 153 154 18 15 151 242 0 157 87 24 17 157 0 151 157 157 0 145 144
 0 0 -17 145 0 158 145 145 0 157 144 0 0 +15 158 257 0 145 159 0 14 159 253 160
 ?161 153 162 4 163 -0 0 161 153 18 81 255 1 160 458 164 159 165 0 152 166 167 1
4 161 258 166 ?149 159 168 4 169 +0 0 149 159 18 14 153 75 170 ?159 87 171 4 172
 +0 0 159 87 18 15 162 256 0 173 159 158 51 163 266 0 159 169 156 0 --.009728645
83305435 .02154083225937135 .0058 0 0 -1 5e-4 -1 0 0 13 18 53 0 0 0 0 0 0 8 12 1
4 12 157 174 ?175 0 176 4 5 -0 0 175 0 18 81 1 174 461 164 12 177 0 170 178 179
 14 175 155 178 ?180 12 68 4 14 -0 0 180 12 18 15 176 156 0 111 12 0 17 111 0 17
6 181 64 34 182 109 0 0 +17 181 0 176 183 111 60 69 142 0 0 -17 64 0 176 111 183
 16 29 105 0 182 +17 182 0 171 62 36 16 111 109 0 0 -15 171 76 0 182 153 0 17 62
 0 171 56 182 51 59 63 0 0 -17 36 0 171 182 184 34 39 112 0 69 -17 184 0 171 36
 185 37 42 115 0 0 -17 39 0 68 70 69 37 36 112 0 141 +17 69 0 68 39 65 34 181 14
2 0 111 +15 68 154 0 39 175 0 17 70 0 68 65 39 66 141 139 0 186 -17 141 0 187 42
 186 37 70 139 0 184 +15 187 152 0 42 180 0 17 42 0 187 188 141 40 184 115 0 138
 +17 186 0 187 141 188 66 77 189 0 0 -17 188 0 187 186 42 73 138 136 0 190 -17 7
7 0 24 80 71 73 186 189 0 188 +16 189 10 0 ?77 191 72 192 0 0 1 16 191 13 0 ?80
 91 189 193 0 0 1 16 72 7 0 ?71 189 129 194 0 0 1 31 192 11 0 189 194 193 0 +-.0
0722864583305405 -.0227575615569549 .002 0 0 1 -1 0 0 .02 30 194 8 0 72 195 192
 0 +-.02722864583305435 .01954083225937135 .002 820231370254662e-31 -1 0 134 193
 14 0 191 192 107 196 +197 198 31 107 17 0 91 193 95 0 +-.01222864583305432 -.02
34249819257472 .002 0 0 1 1 0 0 .02 141 255 196 199 196 196 193 136 197 3 5 3 3
 6 FFF1 200 201 202 135 198 2 0 45 15 200 -.02482632879207145 -.0322613268357225
 .002 -.01983760638641985 -.04149871356508875 .002 -.00989750648112148 -.0509522
882785083 .002 .001392273583831154 -.04156008790182565 .002 .00590459910343864 -
.031862127655978 .002 127 3 201 4 1 4 128 3 202 .0686376297418599 .4962424073686
61 .937653652631564 67 255 199 170 0 203 204 205 0 +193 0 0 -1 ?14 203 151 206 ?
207 180 208 4 199 -0 0 207 180 18 51 204 169 0 207 209 199 0 --.0122286458330543
2 -.0234249819257472 .002 0 0 -1 .02 -1 0 0 51 205 171 0 180 199 14 0 --.0072286
4583305405 -.0227575615569549 .002 0 0 -1 .02 -1 0 0 14 180 153 210 ?203 175 187
 4 205 -0 0 203 175 18 50 255 14 172 0 175 205 5 0 +-.02722864583305435 .0195408
3225937135 .002 1 820231370254662e-31 0 -820231370254662e-31 1 0 81 1 210 464 16
4 180 211 0 206 212 213 80 255 1 164 214 215 9000 1 1 1 1 1 1 1 1 0 FFFFTFTFFFFF
FF1 81 1 211 409 216 180 0 210 217 218 219 81 1 206 463 164 203 218 0 178 210 22
0 81 1 212 465 164 207 221 0 210 222 223 82 255 1 213 1630011528 14 207 149 212
 ?97 203 224 4 204 -0 0 97 203 18 81 1 221 411 216 207 0 212 218 225 226 81 1 22
2 466 164 97 225 0 212 227 228 82 1 223 1629487240 14 97 147 222 ?103 207 93 4 2
09 -0 0 103 207 18 81 1 225 412 216 97 0 222 221 229 230 81 1 227 467 164 103 22
9 0 222 231 232 82 1 228 1629225096 14 103 145 227 ?154 97 53 4 233 -0 0 154 97
 18 81 1 229 413 216 103 0 227 225 234 235 81 1 231 468 164 154 234 0 227 236 23
7 82 1 232 1628962952 14 154 143 231 ?87 103 61 4 238 -0 0 87 103 18 81 1 234 41
4 216 154 0 231 229 239 240 81 1 236 469 164 149 241 0 231 242 243 82 1 237 1628
700808 14 149 305 236 ?244 161 245 4 246 -0 0 244 161 18 81 1 241 419 216 149 0
 236 247 248 249 81 1 242 470 164 244 248 0 236 250 251 82 1 243 -2120613746 14
 244 310 242 ?252 149 253 4 254 +0 0 252 149 18 81 1 248 420 216 244 0 242 241 2
55 256 81 1 250 471 164 252 255 0 242 257 258 82 1 251 -2122579826 14 252 338 25
0 ?259 244 260 4 261 -0 0 259 244 18 81 1 255 421 216 252 0 250 248 262 263 81 1
 257 472 164 259 262 0 250 0 264 82 1 258 -2116484978 14 259 343 257 ?0 252 265
 4 266 +0 0 0 252 18 81 1 262 422 216 259 0 257 255 0 267 82 1 264 -2118451058 8
0 1 216 0 268 8001 0 0 0 0 3 5 0 0 0 FFFFTFTFFFFFFF2 83 255 3 267 .7921568627450
98 .819607843137255 .933333333333333 79 255 15 268 SDL/TYSA_COLOUR15 265 345 0 2
69 259 0 50 266 353 0 259 0 261 0 +.00677135416694567 -.02275756155695435 .0058
 0 0 1 1 0 0 51 261 351 0 252 266 254 0 -.00677135416694567 -.02275756155695435
 .0058 0 0 -1 5e-4 -1 0 0 50 254 320 0 244 261 246 0 +-.02622864583305435 -.0227
5756155695435 .0058 0 0 1 1 0 0 51 246 318 0 149 254 169 0 --.02622864583305435
 -.02275756155695435 .0058 0 0 -1 5e-4 -1 0 0 50 169 268 0 161 246 163 0 +-.0097
2864583305435 .02154083225937135 .0058 0 0 1 1 0 0 17 269 0 265 269 269 0 270 27
1 0 0 +17 270 0 260 270 270 0 269 271 0 0 -16 271 335 0 ?269 272 0 273 0 0 1 16
 272 302 0 ?274 113 271 275 0 0 1 31 273 355 0 271 0 275 0 +.00677135416694567 -
.02275756155695435 .0058 0 0 1 1 0 0 5e-4 31 275 322 0 272 273 276 0 +-.02622864
583305435 -.02275756155695435 .0058 0 0 1 1 0 0 5e-4 31 276 270 0 113 275 195 0
 +-.00972864583305435 .02154083225937135 .0058 0 0 1 1 0 0 5e-4 16 113 250 0 ?27
7 109 272 276 0 0 1 31 195 5 0 129 276 194 0 +-.02422864583305435 .0195408322593
714 .002 0 0 1 -1 0 0 .003 16 129 4 0 ?25 72 63 195 0 0 1 17 25 0 24 71 21 60 18
3 129 0 181 +17 71 0 24 77 25 66 65 72 0 70 +17 183 0 176 64 181 10 25 129 0 0 -
17 277 0 168 277 277 0 173 113 0 0 +15 168 260 0 277 161 0 17 173 0 162 173 173
 0 277 113 0 0 -17 274 0 253 274 274 0 278 272 0 0 +15 253 312 0 274 244 0 17 27
8 0 245 278 278 0 274 272 0 0 -15 245 308 0 278 149 147 15 260 341 0 270 252 279
 15 279 342 0 19 252 0 17 19 0 279 19 19 0 280 9 0 0 +17 280 0 155 280 280 0 19
 9 0 0 -15 155 327 0 280 87 150 83 3 263 .792156862745098 .819607843137255 .9333
33333333333 83 3 256 .792156862745098 .819607843137255 .933333333333333 81 1 247
 418 216 161 0 166 165 241 281 83 3 249 .792156862745098 .819607843137255 .93333
3333333333 81 1 166 459 164 161 247 0 160 170 282 81 1 165 417 216 159 0 160 283
 247 284 83 3 281 .792156862745098 .819607843137255 .933333333333333 81 1 283 41
6 216 153 0 170 239 165 285 83 3 284 .792156862745098 .819607843137255 .93333333
3333333 81 1 170 460 164 153 283 0 166 174 286 81 1 239 415 216 87 0 152 234 283
 287 83 3 285 .792156862745098 .819607843137255 .933333333333333 81 1 152 457 16
4 87 239 0 0 160 288 83 3 287 .792156862745098 .819607843137255 .933333333333333
 82 1 288 1616642190 82 1 286 1626996872 82 1 282 489422987 83 3 240 .7921568627
45098 .819607843137255 .933333333333333 15 61 142 0 59 154 0 50 238 166 0 154 17
2 233 0 +-.02422864583305435 .0225408322593714 .002 0 -1 0 0 0 -1 50 172 117 0 1
53 156 238 0 +-.02422864583305435 .0195408322593714 0 0 0 -1 -1 0 0 51 233 167 0
 103 238 209 0 -.00477135416694565 .0195408322593714 .002 0 0 -1 .003 -1 0 0 50
 209 168 0 97 233 204 0 +.00777135416694565 .01954083225937135 .002 -1 -32299603
9316795e-30 0 322996039316795e-30 -1 0 50 156 2 0 87 163 172 0 +-.02422864583305
435 .0195408322593714 .002 0 0 -1 -1 0 0 83 3 235 .792156862745098 .819607843137
255 .933333333333333 83 3 230 .792156862745098 .819607843137255 .933333333333333
 81 1 218 410 216 203 0 206 211 221 289 83 3 226 .792156862745098 .8196078431372
55 .933333333333333 83 3 289 .792156862745098 .819607843137255 .933333333333333
 15 224 148 0 48 207 0 17 48 0 224 92 135 46 290 121 0 94 +17 92 0 224 90 48 81
 94 100 0 84 -17 135 0 224 48 90 43 291 133 0 290 +17 290 0 171 185 98 43 48 121
 0 0 -17 94 0 93 50 84 46 92 100 0 98 +17 98 0 171 290 56 46 50 99 0 0 -17 56 0
 171 98 62 49 52 57 0 0 -17 185 0 171 184 290 40 45 117 0 0 -17 45 0 208 291 138
 43 185 117 0 135 +15 208 150 0 45 203 0 17 291 0 208 190 45 78 135 133 0 90 -17
 138 0 208 45 190 40 188 136 0 185 +17 190 0 208 138 291 73 80 191 0 0 -17 80 0
 24 82 77 78 190 191 0 291 +17 90 0 224 135 92 78 82 91 0 0 -16 91 16 0 ?82 85 1
91 107 0 0 1 81 1 178 462 164 175 217 0 174 206 292 82 1 220 1629749384 81 1 217
 408 216 175 0 178 177 211 293 82 1 292 1630273672 81 1 177 407 216 12 0 174 0 2
17 294 83 3 293 .792156862745098 .819607843137255 .933333333333333 83 3 294 .792
156862745098 .819607843137255 .933333333333333 83 3 219 .792156862745098 .819607
843137255 .933333333333333 79 14 215 SWEntUnchanged17 29 0 61 27 59 10 64 105 0
 183 -17 27 0 61 58 29 22 21 28 0 0 -17 58 0 61 59 27 51 54 101 0 62 +82 1 179 1
630535816 82 1 167 491389067 19 13 175 0 1 0 8 4 S0 74 4 CI16 index_map_offset0
 0 1 dCCZ20 11 2 0 0 257 262 0 0 0 0 0 0 0 0 0 0 0 0 0 0 0 0 0 0 1 0 
