**ABCDEFGHIJKLMNOPQRSTUVWXYZabcdefghijklmnopqrstuvwxyz**************************
**PARASOLID !"#$%&'()*+,-./:;<=>?@[\]^_`{|}~0123456789**************************
**PART1;
MC=AMD64;
MC_MODEL=Intel64 Family 6 Model 58 Stepping 9, GenuineIntel;
MC_ID=unknown;
OS=Windows_NT;
OS_RELEASE=unknown;
FRU=Parasolid Version 27.0, build 199, 11-19-2014;
APPL=SOLIDWORKS 2015-2015063;
SITE=;
USER=unknown;
FORMAT=text;
GUISE=transmit;
KEY=monicabase;
FILE=monicabase.x_t;
DATE=Wed Sep 30 13:45:49 2015;
**PART2;
SCH=SCH_2700199_26105;
USFLD_SIZE=0;
**PART3;
**END_OF_HEADER*****************************************************************
T51 : TRANSMIT FILE created by modeller version 270019923 SCH_2700199_26105_1300
6196 0 12 30 CCCCCCCCCCCCCDI5 owner1040 0 CCCCCCCCCA13 boundary_mesh1006 0 A16 i
ndex_map_offset0 0 1 dA9 index_map82 0 A17 node_id_index_map82 0 A20 schema_embe
dding_map82 0 A5 child12 0 A14 lowest_node_id0 0 1 dZ1 448 0 2 0 0 0 0 1e3 1e-8
 0 3 0 1 0 1 1 4 5 6 7 8 9 10 0 0 0 0 0 0 0 70 11 CI9 list_type0 0 1 uI10 notran
smit0 0 1 lCCCDCCDI12 finger_index0 0 1 dI12 finger_block1012 0 CZ2 0 4 T1 0 0 2
 20 1 11 11 13 255 4 193 0 1 0 12 0 0 13 0 51 255 5 192 0 12 14 0 0 +-.00212 -.0
240183938163257 .002 0 0 -1 .02 -1 0 0 30 255 6 184 0 9 15 0 0 +-.01971768295901
71 -.03352215909509385 .002 0 0 -1 29 255 7 145 0 16 17 0 -.02212 -.024018393816
3257 0 19 8 CCCCCCCA5 owner12 0 Z8 62 0 1 13 0 18 V0 16 255 9 160 0 ?19 0 20 6 0
 0 1 18 255 10 58 0 21 0 22 23 ?1 17 255 21 0 24 25 26 10 27 28 0 29 +18 22 55 0
 30 10 31 32 ?1 29 23 60 0 10 32 33 -.02212 -.0240183938163257 .002 29 32 57 0 2
2 34 23 -.02212 .01828 .002 29 33 152 0 35 23 36 -.0197176829590171 -.0335221590
9509385 0 18 35 135 0 19 37 0 33 ?1 29 36 151 0 37 33 38 .01101324493649298 -.03
31229599153494 0 18 37 134 0 39 40 35 36 ?1 29 38 150 0 40 36 41 .01288 -.024685
8141851186 0 18 40 133 0 42 43 37 38 ?1 29 41 149 0 43 38 44 .01288 .01828 0 18
 43 132 0 45 46 40 41 ?1 29 44 148 0 46 41 47 .00988 .02128 0 18 46 131 0 48 49
 43 44 ?1 29 47 147 0 49 44 17 -.01912 .02128 0 18 49 130 0 50 51 46 47 ?1 29 17
 146 0 51 47 7 -.02212 .01828 0 18 51 129 0 52 16 49 17 ?1 17 52 0 53 54 27 51 3
0 55 0 56 +18 16 128 0 57 58 51 7 ?1 17 57 0 59 60 61 16 29 62 0 54 +18 58 37 0
 63 64 16 65 ?1 17 63 0 59 61 60 58 19 9 0 66 -18 64 40 0 67 68 58 69 ?1 29 65 3
9 0 58 0 69 -.0197176829590171 -.03352215909509385 .002 29 69 42 0 64 65 70 .011
01324493649298 -.0331229599153494 .002 29 70 45 0 68 69 71 .01288 -.024685814185
1186 .002 18 68 43 0 72 73 64 70 ?1 29 71 48 0 73 70 74 .01288 .01828 .002 18 73
 46 0 75 76 68 71 ?1 29 74 51 0 76 71 34 .00988 .02128 .002 18 76 49 0 77 31 73
 74 ?1 29 34 54 0 31 74 32 -.01912 .02128 .002 18 31 52 0 78 22 76 34 ?1 17 78 0
 79 80 81 31 50 82 0 83 -15 255 79 165 0 81 84 0 17 80 0 79 48 78 76 83 85 0 0 +
17 81 0 79 78 48 49 86 87 0 88 -17 50 0 89 90 91 49 78 82 0 81 +16 82 155 0 ?50
 92 55 93 0 0 1 17 83 0 24 26 77 31 80 85 0 91 -15 24 4 0 25 94 0 17 26 0 24 21
 83 22 91 95 0 0 -17 77 0 24 83 96 76 97 98 0 99 +16 85 25 0 ?80 95 98 100 0 0 1
 17 91 0 89 50 30 31 26 95 0 0 +15 89 163 0 90 101 0 17 30 0 89 91 90 22 52 55 0
 27 -16 95 29 0 ?91 28 85 102 0 0 1 16 28 33 0 ?21 62 95 103 0 0 1 31 255 102 30
 0 95 100 103 0 --.01912 .01828 .002 0 0 1 1 0 0 .003 30 100 26 0 85 104 102 0 +
0 .02128 .002 1 0 0 30 103 34 0 28 102 105 0 +-.02212 -181435179100331e-32 .002
 820231370254662e-31 -1 0 31 105 144 0 106 103 107 0 --.00212 -.0240183938163257
 0 0 0 1 1 0 0 .02 16 106 123 0 ?108 109 110 105 0 0 1 134 255 107 143 0 109 105
 111 0 +112 113 16 109 118 0 ?39 114 106 107 0 0 1 31 111 142 0 114 107 115 0 +-
.00712 -.0246858141851186 0 0 0 1 1 0 0 .02 136 255 112 3 5 3 3 6 FFF1 116 117 1
18 135 255 113 2 0 45 255 15 116 -.0197176829590171 -.03352215909509385 -1694065
8945086e-34 -.0147289605533654 -.04275954582446005 -16940658945086e-34 -.0047888
6064806724 -.0522131205378796 -16940658945086e-34 .0065009194168856 -.0428209201
611971 -16940658945086e-34 .011013244936493 -.0331229599153494 -16940658945086e-
34 127 255 3 117 4 1 4 128 255 3 118 .0686376297418594 .496242407368661 .9376536
52631564 16 114 113 0 ?119 120 109 111 0 0 1 30 115 141 0 120 111 121 0 +.01288
 -1040047246600064e-33 0 -807490098291975e-31 -1 0 16 120 108 0 ?122 123 114 115
 0 0 1 31 121 140 0 123 115 124 0 +.00988 .01828 0 0 0 1 1 0 0 .003 16 123 103 0
 ?125 87 120 121 0 0 1 30 124 139 0 87 121 126 0 +0 .02128 0 1 0 0 16 87 98 0 ?8
6 127 123 124 0 0 1 31 126 138 0 127 124 128 0 --.01912 .01828 0 0 0 1 1 0 0 .00
3 16 127 93 0 ?88 129 87 126 0 0 1 30 128 137 0 129 126 130 0 +-.02212 -18143517
9100331e-32 0 820231370254662e-31 -1 0 16 129 88 0 ?54 131 127 128 0 0 1 30 130
 177 0 62 128 132 0 +-.02212 -.0240183938163257 .002 0 0 -1 16 62 153 0 ?57 55 2
8 130 0 0 1 30 132 178 0 55 130 93 0 +-.02212 .01828 .002 0 0 -1 16 55 154 0 ?52
 82 62 132 0 0 1 30 93 179 0 82 132 133 0 +-.01912 .02128 .002 0 0 -1 30 133 180
 0 92 93 134 0 +.00988 .02128 .002 0 0 -1 16 92 156 0 ?48 135 82 133 0 0 1 30 13
4 181 0 135 133 136 0 +.01288 .01828 .002 0 0 -1 16 135 157 0 ?45 137 92 134 0 0
 1 30 136 182 0 137 134 15 0 +.01288 -.0246858141851186 .002 0 0 -1 16 137 158 0
 ?42 20 135 136 0 0 1 30 15 183 0 20 136 6 0 +.01101324493649298 -.0331229599153
494 .002 0 0 -1 16 20 159 0 ?138 9 137 15 0 0 1 17 138 0 139 119 140 37 141 20 0
 142 +15 139 171 0 119 143 0 17 119 0 139 144 138 40 142 114 0 122 +17 140 0 139
 138 144 64 72 145 0 0 -17 141 0 146 66 39 64 138 20 0 140 -17 142 0 147 148 122
 37 119 114 0 0 -15 147 87 0 108 149 0 17 148 0 147 108 142 35 39 109 0 60 -17 1
22 0 147 142 150 40 151 120 0 0 +17 150 0 147 122 86 43 125 123 0 151 -17 151 0
 152 75 42 43 122 120 0 0 -15 152 169 0 151 153 0 17 75 0 152 154 151 73 45 135
 0 97 -17 42 0 152 151 154 40 144 137 0 119 +17 154 0 152 42 75 68 96 155 0 0 +1
7 144 0 139 140 119 68 42 137 0 154 -17 96 0 24 77 72 73 154 155 0 0 -16 155 17
 0 ?154 98 145 156 0 0 1 16 98 21 0 ?77 85 155 104 0 0 1 16 145 13 0 ?72 155 157
 158 0 0 1 30 156 18 0 155 158 104 0 +.01288 -1040047246600064e-33 .002 -8074900
98291975e-31 -1 0 31 158 14 0 145 159 156 0 +-.00712 -.0246858141851186 .002 0 0
 1 1 0 0 .02 31 104 22 0 98 156 100 0 +.00988 .01828 .002 0 0 1 1 0 0 .003 134 1
59 10 0 157 160 158 161 +162 163 16 157 9 0 ?67 145 131 159 0 0 1 31 160 6 0 131
 164 159 0 --.00212 -.0240183938163257 .002 0 0 1 1 0 0 .02 141 255 161 14 161 1
61 159 136 162 3 5 3 3 6 FFF1 165 166 167 135 163 2 0 45 15 165 -.01971768295901
71 -.03352215909509385 .002 -.0147289605533654 -.04275954582446005 .002 -.004788
86064806724 -.0522131205378796 .002 .0065009194168856 -.0428209201611971 .002 .0
11013244936493 -.0331229599153494 .002 127 3 166 4 1 4 128 3 167 .06863762974185
94 .496242407368661 .937653652631564 67 255 14 191 0 168 169 5 0 +159 0 0 -1 ?14
 255 168 174 170 ?143 12 146 4 14 -0 0 143 12 18 51 169 190 0 143 171 14 0 --.00
712 -.0246858141851186 .002 0 0 -1 .02 -1 0 0 14 143 172 172 ?153 168 139 4 169
 -0 0 153 168 18 50 255 171 189 0 153 173 169 0 +.01288 -1040047246600064e-33 .0
02 1 -807490098291975e-31 0 807490098291975e-31 1 0 14 153 170 174 ?175 143 152
 4 171 +0 0 175 143 18 51 173 188 0 175 176 171 0 -.00988 .01828 .002 0 0 -1 .00
3 -1 0 0 14 175 168 177 ?84 153 178 4 173 -0 0 84 153 18 50 176 187 0 84 179 173
 0 +0 .02128 .002 0 1 0 0 0 1 14 84 166 180 ?101 175 79 4 176 +0 0 101 175 18 51
 179 186 0 101 181 176 0 +-.01912 .01828 .002 0 0 -1 .003 -1 0 0 14 101 164 182
 ?183 84 89 4 179 +0 0 183 84 18 50 181 185 0 183 184 179 0 +-.02212 -1814351791
00331e-32 .002 1 820231370254662e-31 0 -820231370254662e-31 1 0 14 183 162 185 ?
94 101 53 4 181 -0 0 94 101 18 50 184 136 0 149 186 181 0 +0 0 0 0 0 1 1 0 0 14
 149 85 187 ?188 94 147 4 184 -0 0 188 94 18 50 186 2 0 94 189 184 0 +0 0 .002 0
 0 1 1 0 0 14 94 1 190 ?149 183 191 4 186 +0 0 149 183 18 51 189 276 0 188 192 1
86 0 --.00462 .02028 .007 0 0 -1 5e-4 -1 0 0 14 188 263 193 ?194 149 195 4 189 -
0 0 194 149 18 50 192 278 0 194 196 189 0 +-.00462 .02028 .007 0 0 1 1 0 0 14 19
4 268 197 ?198 188 199 4 192 +0 0 198 188 18 51 196 317 0 198 200 192 0 --.02112
 -.01872 .007 0 0 -1 5e-4 -1 0 0 14 198 304 201 ?202 194 203 4 196 -0 0 202 194
 18 50 200 319 0 202 204 196 0 +-.02112 -.01872 .007 0 0 1 1 0 0 14 202 309 205
 ?206 198 207 4 200 +0 0 206 198 18 51 204 368 0 206 208 200 0 -.01188 -.01872 .
007 0 0 -1 5e-4 -1 0 0 14 206 355 209 ?210 202 211 4 204 -0 0 210 202 18 50 208
 370 0 210 0 204 0 +.01188 -.01872 .007 0 0 1 1 0 0 14 210 360 212 ?0 206 213 4
 208 +0 0 0 206 18 81 255 1 212 447 214 210 215 0 209 216 217 15 213 362 0 218 2
10 0 13 18 63 0 0 0 0 0 0 8 12 14 12 176 216 ?168 0 59 4 5 +0 0 168 0 18 81 1 21
6 448 214 12 219 0 212 0 220 15 59 175 0 60 12 0 17 60 0 59 63 57 35 108 106 0 0
 -17 108 0 147 56 148 16 60 106 0 0 +17 56 0 147 88 108 51 54 129 0 90 -17 88 0
 147 86 56 49 90 127 0 0 +17 54 0 53 29 52 16 56 129 0 108 +17 90 0 89 30 50 51
 88 127 0 0 -15 53 161 0 54 183 0 17 29 0 53 27 54 10 57 62 0 61 -17 27 0 53 52
 29 22 21 28 0 26 -17 61 0 59 57 63 10 25 131 0 0 +17 25 0 24 67 21 58 61 131 0
 0 -16 131 5 0 ?61 157 129 160 0 0 1 17 67 0 24 72 25 64 66 157 0 141 +17 72 0 2
4 96 67 68 140 145 0 144 +17 66 0 146 19 141 58 67 157 0 25 -15 146 173 0 39 168
 0 17 19 0 146 39 66 35 63 9 0 148 +17 39 0 146 141 19 37 148 109 0 138 +17 86 0
 147 150 88 46 81 87 0 0 +80 255 1 214 221 222 9000 1 1 1 1 1 1 1 1 0 FFFFTFTFFF
FFFF1 81 1 219 383 223 12 0 216 0 224 225 82 255 1 220 1732640892 80 1 223 0 226
 8001 0 0 0 0 3 5 0 0 0 FFFFTFTFFFFFFF2 81 1 224 384 223 168 0 170 219 227 228 8
3 255 3 225 .792156862745098 .819607843137255 .933333333333333 81 1 170 433 214
 168 224 0 0 172 229 81 1 227 385 223 143 0 172 224 230 231 83 3 228 .7921568627
45098 .819607843137255 .933333333333333 81 1 172 434 214 143 227 0 170 174 232 8
1 1 230 386 223 153 0 174 227 233 234 83 3 231 .792156862745098 .819607843137255
 .933333333333333 81 1 174 435 214 153 230 0 172 177 235 81 1 233 387 223 175 0
 177 230 236 237 83 3 234 .792156862745098 .819607843137255 .933333333333333 81
 1 177 436 214 175 233 0 174 180 238 81 1 236 388 223 84 0 180 233 239 240 83 3
 237 .792156862745098 .819607843137255 .933333333333333 81 1 180 437 214 84 236
 0 177 182 241 81 1 239 389 223 101 0 182 236 242 243 83 3 240 .792156862745098
 .819607843137255 .933333333333333 81 1 182 438 214 101 239 0 180 185 244 81 1 2
42 390 223 183 0 185 239 245 246 83 3 243 .792156862745098 .819607843137255 .933
333333333333 81 1 185 439 214 183 242 0 182 187 247 81 1 245 391 223 94 0 190 24
2 248 249 83 3 246 .792156862745098 .819607843137255 .933333333333333 81 1 190 4
41 214 94 245 0 187 193 250 81 1 248 392 223 149 0 187 245 251 252 83 3 249 .792
156862745098 .819607843137255 .933333333333333 81 1 187 440 214 149 248 0 185 19
0 253 81 1 251 393 223 188 0 193 248 254 255 83 3 252 .792156862745098 .81960784
3137255 .933333333333333 81 1 193 442 214 188 251 0 190 197 256 81 1 254 394 223
 194 0 197 251 257 258 83 3 255 .792156862745098 .819607843137255 .9333333333333
33 81 1 197 443 214 194 254 0 193 201 259 81 1 257 395 223 198 0 201 254 260 261
 83 3 258 .792156862745098 .819607843137255 .933333333333333 81 1 201 444 214 19
8 257 0 197 205 262 81 1 260 396 223 202 0 205 257 263 264 83 3 261 .79215686274
5098 .819607843137255 .933333333333333 81 1 205 445 214 202 260 0 201 209 265 81
 1 263 397 223 206 0 209 260 215 266 83 3 264 .792156862745098 .819607843137255
 .933333333333333 81 1 209 446 214 206 263 0 205 212 267 81 1 215 398 223 210 0
 212 263 0 268 83 3 266 .792156862745098 .819607843137255 .933333333333333 83 3
 268 .792156862745098 .819607843137255 .933333333333333 82 1 267 972095633 82 1
 265 489226382 82 1 262 491192462 82 1 259 -883949429 82 1 256 -881983349 82 1 2
53 1729167484 82 1 250 1717567633 82 1 247 1730936956 82 1 244 1731199100 82 1 2
41 1731395708 82 1 238 1731526780 82 1 235 1731854460 82 1 232 1732051068 82 1 2
29 1732378748 79 255 15 226 SDL/TYSA_COLOUR79 14 222 SWEntUnchanged17 218 0 213
 218 218 0 269 270 0 0 +17 269 0 211 269 269 0 218 270 0 0 -16 270 352 0 ?218 27
1 272 273 0 0 1 16 271 298 0 ?274 275 270 276 0 0 1 16 272 349 0 ?277 270 0 278
 0 0 1 31 273 372 0 270 0 278 0 +.01188 -.01872 .007 0 0 1 1 0 0 5e-4 31 278 371
 0 272 273 279 0 +.01188 -.01872 .002 0 0 1 1 0 0 5e-4 31 279 321 0 275 278 276
 0 +-.02112 -.01872 .007 0 0 1 1 0 0 5e-4 16 275 301 0 ?280 281 271 279 0 0 1 31
 276 320 0 271 279 282 0 +-.02112 -.01872 .002 0 0 1 1 0 0 5e-4 31 282 280 0 110
 276 164 0 +-.00462 .02028 .007 0 0 1 1 0 0 5e-4 16 110 260 0 ?283 106 281 282 0
 0 1 31 164 279 0 281 282 160 0 +-.00462 .02028 .002 0 0 1 1 0 0 5e-4 16 281 257
 0 ?284 110 275 164 0 0 1 17 284 0 285 284 284 0 286 281 0 0 +15 285 267 0 284 1
88 0 17 286 0 287 286 286 0 284 281 0 0 -15 287 251 0 286 94 24 17 283 0 199 283
 283 0 288 110 0 0 +15 199 270 0 283 194 0 17 288 0 195 288 288 0 283 110 0 0 -1
5 195 266 0 288 188 285 17 280 0 207 280 280 0 289 275 0 0 +15 207 311 0 280 202
 0 17 289 0 203 289 289 0 280 275 0 0 -15 203 307 0 289 198 290 15 290 308 0 274
 198 0 17 274 0 290 274 274 0 291 271 0 0 +17 291 0 292 291 291 0 274 271 0 0 -1
5 292 292 0 291 94 287 17 277 0 293 277 277 0 294 272 0 0 +15 293 359 0 277 206
 0 17 294 0 191 294 294 0 277 272 0 0 -15 191 343 0 294 94 292 15 211 358 0 269
 206 293 82 1 217 970129553 15 178 167 0 125 175 0 17 125 0 178 99 45 46 150 123
 0 86 +17 99 0 178 97 125 76 48 92 0 80 -17 45 0 178 125 97 43 75 135 0 150 +17
 97 0 178 45 99 73 77 98 0 96 -17 48 0 79 81 80 46 99 92 0 125 +19 13 194 0 1 0
 8 4 S0 74 4 CI16 index_map_offset0 0 1 dCCZ20 11 2 0 0 216 215 0 0 0 0 0 0 0 0
 0 0 0 0 0 0 0 0 0 0 1 0 
