%
M48
M72
T01C0.01181
T02C0.01200
T03C0.01500
T04C0.01969
T05C0.02362
T06C0.02500
T07C0.04000
%
T01
X12278Y8800
X12278Y13800
X15978Y16700
X19378Y12900
X24078Y12900
X24178Y8100
X19278Y8100
X30778Y9700
X32578Y12100
X31578Y15300
X28278Y20100
X25978Y17700
X18678Y23300
X19878Y31400
X20778Y34800
X32778Y31700
X38578Y23900
X42878Y24100
X49378Y24100
X54178Y24100
X59178Y24100
X64378Y24100
X70878Y24100
X74478Y24100
X63378Y31100
X55678Y31100
X50178Y31100
X39478Y18100
X39578Y14500
X39478Y7600
X32878Y7600
X73378Y45200
X73378Y54000
X55278Y53700
X51278Y50500
X34378Y71800
X22078Y79800
X14778Y85000
X41678Y93600
X52678Y93700
X61178Y100000
X66478Y83800
X37678Y108700
X27378Y118900
X32278Y126800
X50478Y123500
X53278Y121400
X19878Y109100
T02
X27178Y108100
X29278Y104900
X25378Y99800
X21378Y94700
X28178Y86200
X38878Y96300
X43478Y84600
X51978Y84600
X57878Y75000
X61478Y75100
X61178Y67700
X60378Y62000
X50378Y68000
X46078Y63200
X46078Y53700
X51078Y54200
X61178Y50000
X58578Y44300
X54878Y44500
X51078Y44900
X44978Y41700
X35078Y41900
X31978Y47800
X37178Y53400
X31778Y55600
X31756Y59378
X31278Y63100
X31978Y69100
X39378Y74500
X47678Y74100
X71878Y71700
X71778Y67900
X73578Y63100
X61578Y41900
X45578Y30500
X34878Y28600
X24078Y31600
X19678Y40500
X21578Y43600
X21278Y70400
X16678Y76100
X49178Y109100
X53578Y113800
X61278Y113800
X61278Y116700
X61078Y122000
X57678Y126900
X58478Y130800
X66878Y127500
X71078Y127500
X68878Y116300
X72376Y115121
X73978Y108300
X49178Y134100
X45278Y134100
X41478Y134100
X27078Y126800
X27378Y122100
X20478Y118900
X28178Y115100
T03
X53478Y126800
X28578Y139400
T04
X35253Y140000
X57104Y140000
T05
X53856Y131732
X38501Y131732
T06
X6178Y130000
X6178Y120000
X6178Y110000
X6178Y100000
X6178Y90000
X6178Y80000
X6178Y70000
X6178Y60000
X6178Y50000
X6178Y40000
X6178Y30000
X6178Y20000
X86178Y20000
X86178Y30000
X86178Y40000
X86178Y50000
X86178Y60000
X86178Y70000
X86178Y80000
X86178Y90000
X86178Y100000
X86178Y110000
X86178Y120000
X86178Y130000
T07
X81178Y130000
X81178Y120000
X81178Y110000
X81178Y100000
X81178Y90000
X81178Y80000
X81178Y70000
X81178Y60000
X81178Y50000
X81178Y40000
X81178Y30000
X81178Y20000
X11178Y20000
X11178Y30000
X11178Y40000
X11178Y50000
X11178Y60000
X11178Y70000
X11178Y80000
X11178Y90000
X11178Y100000
X11178Y110000
X11178Y120000
X11178Y130000
M30
