G75*
%MOIN*%
%OFA0B0*%
%FSLAX25Y25*%
%IPPOS*%
%LPD*%
%AMOC8*
5,1,8,0,0,1.08239X$1,22.5*
%
%ADD10R,0.02400X0.01800*%
%ADD11R,0.01575X0.05315*%
%ADD12R,0.05906X0.07480*%
%ADD13R,0.04921X0.02559*%
%ADD14R,0.03150X0.03150*%
%ADD15R,0.04724X0.01378*%
%ADD16R,0.03937X0.03937*%
%ADD17R,0.01378X0.04724*%
%ADD18R,0.04134X0.08661*%
%ADD19R,0.03937X0.04134*%
%ADD20R,0.01800X0.02400*%
%ADD21R,0.04100X0.02800*%
%ADD22R,0.02800X0.04100*%
%ADD23R,0.03937X0.07874*%
%ADD24R,0.11024X0.03150*%
%ADD25R,0.10500X0.10000*%
%ADD26R,0.03000X0.05000*%
%ADD27R,0.04724X0.02165*%
%ADD28R,0.10630X0.03150*%
%ADD29R,0.03937X0.03150*%
%ADD30R,0.01600X0.01400*%
%ADD31R,0.01400X0.01600*%
%ADD32R,0.01299X0.00591*%
%ADD33R,0.00787X0.02008*%
D10*
X0036078Y0007800D03*
X0036078Y0011600D03*
X0036078Y0014400D03*
X0036078Y0018200D03*
X0059978Y0027100D03*
X0059978Y0030900D03*
X0072178Y0030900D03*
X0072178Y0027100D03*
X0072626Y0080347D03*
X0072626Y0084147D03*
X0052578Y0087000D03*
X0052578Y0090800D03*
X0043078Y0090800D03*
X0043078Y0087000D03*
X0037878Y0087000D03*
X0034078Y0087000D03*
X0034078Y0090800D03*
X0037878Y0090800D03*
X0022978Y0090800D03*
X0022978Y0087000D03*
X0050978Y0114900D03*
X0050978Y0118700D03*
D11*
X0051297Y0129469D03*
X0048738Y0129469D03*
X0046178Y0129469D03*
X0043619Y0129469D03*
X0041060Y0129469D03*
D12*
X0042241Y0139961D03*
X0050115Y0140000D03*
D13*
X0056297Y0106051D03*
X0056297Y0099949D03*
X0071060Y0099949D03*
X0071060Y0106051D03*
X0036060Y0106051D03*
X0036060Y0099949D03*
X0021297Y0099949D03*
X0021297Y0106051D03*
D14*
X0064504Y0090000D03*
X0070410Y0090000D03*
D15*
X0066060Y0076413D03*
X0066060Y0073657D03*
X0066060Y0070902D03*
X0066060Y0068146D03*
X0066060Y0065390D03*
X0066060Y0062634D03*
X0066060Y0059878D03*
X0066060Y0057122D03*
X0066060Y0054366D03*
X0066060Y0051610D03*
X0066060Y0048854D03*
X0066060Y0046098D03*
X0066060Y0043343D03*
X0066060Y0040587D03*
X0026297Y0040587D03*
X0026297Y0043343D03*
X0026297Y0046098D03*
X0026297Y0048854D03*
X0026297Y0051610D03*
X0026297Y0054366D03*
X0026297Y0057122D03*
X0026297Y0059878D03*
X0026297Y0062634D03*
X0026297Y0065390D03*
X0026297Y0068146D03*
X0026297Y0070902D03*
X0026297Y0073657D03*
X0026297Y0076413D03*
D16*
X0025903Y0080744D03*
X0036730Y0067949D03*
X0046178Y0067949D03*
X0055627Y0067949D03*
X0055627Y0058500D03*
X0046178Y0058500D03*
X0036730Y0058500D03*
X0036730Y0049051D03*
X0046178Y0049051D03*
X0055627Y0049051D03*
X0066454Y0036256D03*
X0025903Y0036256D03*
X0066454Y0080744D03*
D17*
X0062714Y0080350D03*
X0059958Y0080350D03*
X0057202Y0080350D03*
X0054446Y0080350D03*
X0051690Y0080350D03*
X0048934Y0080350D03*
X0046178Y0080350D03*
X0043423Y0080350D03*
X0040667Y0080350D03*
X0037911Y0080350D03*
X0035155Y0080350D03*
X0032399Y0080350D03*
X0029643Y0080350D03*
X0029643Y0036650D03*
X0032399Y0036650D03*
X0035155Y0036650D03*
X0037911Y0036650D03*
X0040667Y0036650D03*
X0043423Y0036650D03*
X0046178Y0036650D03*
X0048934Y0036650D03*
X0051690Y0036650D03*
X0054446Y0036650D03*
X0057202Y0036650D03*
X0059958Y0036650D03*
X0062714Y0036650D03*
D18*
X0015971Y0011200D03*
X0027586Y0011200D03*
D19*
X0021778Y0017214D03*
D20*
X0020278Y0027900D03*
X0024078Y0027900D03*
X0035778Y0021400D03*
X0039578Y0021400D03*
X0037678Y0027300D03*
X0041478Y0027300D03*
X0042978Y0031000D03*
X0039178Y0031000D03*
X0067278Y0112000D03*
X0071078Y0112000D03*
X0071078Y0120000D03*
X0067278Y0120000D03*
X0067278Y0124000D03*
X0071078Y0124000D03*
X0024678Y0126800D03*
X0020878Y0126800D03*
D21*
X0057178Y0121550D03*
X0057178Y0115650D03*
X0047778Y0093450D03*
X0047778Y0087550D03*
X0057478Y0087050D03*
X0057478Y0092950D03*
X0067678Y0030650D03*
X0067678Y0024750D03*
D22*
X0052028Y0027500D03*
X0046128Y0027500D03*
X0027228Y0131400D03*
X0021328Y0131400D03*
D23*
X0046899Y0010900D03*
X0074458Y0010900D03*
D24*
X0060678Y0007691D03*
X0060678Y0014109D03*
D25*
X0016678Y0139400D03*
D26*
X0025928Y0139400D03*
D27*
X0022260Y0122640D03*
X0022260Y0115160D03*
X0032497Y0115160D03*
X0032497Y0118900D03*
X0032497Y0122640D03*
D28*
X0042078Y0122031D03*
X0042078Y0113369D03*
D29*
X0043226Y0105165D03*
X0043226Y0100835D03*
X0049131Y0100835D03*
X0049131Y0105165D03*
D30*
X0029678Y0032100D03*
X0029678Y0029900D03*
X0031578Y0020400D03*
X0031578Y0018200D03*
D31*
X0023978Y0022500D03*
X0021778Y0022500D03*
D32*
X0027769Y0024116D03*
X0027769Y0026084D03*
X0031588Y0026084D03*
X0031588Y0024116D03*
D33*
X0029678Y0023446D03*
X0029678Y0026754D03*
M02*
