G75*
%MOIN*%
%OFA0B0*%
%FSLAX25Y25*%
%IPPOS*%
%LPD*%
%AMOC8*
5,1,8,0,0,1.08239X$1,22.5*
%
%ADD10C,0.03162*%
%ADD11C,0.05169*%
%ADD12C,0.00500*%
%ADD13C,0.07800*%
%ADD14C,0.05700*%
%ADD15R,0.06800X0.06800*%
%ADD16R,0.04300X0.04300*%
D10*
X0038501Y0131732D03*
X0053856Y0131732D03*
D11*
X0057104Y0137816D02*
X0057104Y0142184D01*
X0035253Y0142184D02*
X0035253Y0137816D01*
D12*
X0006178Y0023500D02*
X0006178Y0016500D01*
X0011178Y0016500D01*
X0011861Y0016567D01*
X0012518Y0016766D01*
X0013123Y0017090D01*
X0013653Y0017525D01*
X0014089Y0018055D01*
X0014412Y0018661D01*
X0014611Y0019317D01*
X0014678Y0020000D01*
X0014611Y0020683D01*
X0014412Y0021339D01*
X0014089Y0021945D01*
X0013653Y0022475D01*
X0013123Y0022910D01*
X0012518Y0023234D01*
X0011861Y0023433D01*
X0011178Y0023500D01*
X0006178Y0023500D01*
X0006178Y0023439D02*
X0011798Y0023439D01*
X0013066Y0022940D02*
X0006178Y0022940D01*
X0006178Y0022442D02*
X0013680Y0022442D01*
X0014089Y0021943D02*
X0006178Y0021943D01*
X0006178Y0021445D02*
X0014356Y0021445D01*
X0014531Y0020946D02*
X0006178Y0020946D01*
X0006178Y0020448D02*
X0014634Y0020448D01*
X0014673Y0019949D02*
X0006178Y0019949D01*
X0006178Y0019451D02*
X0014624Y0019451D01*
X0014501Y0018952D02*
X0006178Y0018952D01*
X0006178Y0018454D02*
X0014302Y0018454D01*
X0014006Y0017955D02*
X0006178Y0017955D01*
X0006178Y0017457D02*
X0013570Y0017457D01*
X0012877Y0016958D02*
X0006178Y0016958D01*
X0006178Y0026500D02*
X0006178Y0033500D01*
X0011178Y0033500D01*
X0011861Y0033433D01*
X0012518Y0033234D01*
X0013123Y0032910D01*
X0013653Y0032475D01*
X0014089Y0031945D01*
X0014412Y0031339D01*
X0014611Y0030683D01*
X0014678Y0030000D01*
X0014611Y0029317D01*
X0014412Y0028661D01*
X0014089Y0028055D01*
X0013653Y0027525D01*
X0013123Y0027090D01*
X0012518Y0026766D01*
X0011861Y0026567D01*
X0011178Y0026500D01*
X0006178Y0026500D01*
X0006178Y0026929D02*
X0012821Y0026929D01*
X0013534Y0027427D02*
X0006178Y0027427D01*
X0006178Y0027926D02*
X0013982Y0027926D01*
X0014286Y0028424D02*
X0006178Y0028424D01*
X0006178Y0028923D02*
X0014492Y0028923D01*
X0014621Y0029421D02*
X0006178Y0029421D01*
X0006178Y0029920D02*
X0014671Y0029920D01*
X0014637Y0030418D02*
X0006178Y0030418D01*
X0006178Y0030917D02*
X0014540Y0030917D01*
X0014372Y0031415D02*
X0006178Y0031415D01*
X0006178Y0031914D02*
X0014105Y0031914D01*
X0013705Y0032412D02*
X0006178Y0032412D01*
X0006178Y0032911D02*
X0013122Y0032911D01*
X0011939Y0033409D02*
X0006178Y0033409D01*
X0006178Y0036500D02*
X0006178Y0043500D01*
X0011178Y0043500D01*
X0011861Y0043433D01*
X0012518Y0043234D01*
X0013123Y0042910D01*
X0013653Y0042475D01*
X0014089Y0041945D01*
X0014412Y0041339D01*
X0014611Y0040683D01*
X0014678Y0040000D01*
X0014611Y0039317D01*
X0014412Y0038661D01*
X0014089Y0038055D01*
X0013653Y0037525D01*
X0013123Y0037090D01*
X0012518Y0036766D01*
X0011861Y0036567D01*
X0011178Y0036500D01*
X0006178Y0036500D01*
X0006178Y0036899D02*
X0012765Y0036899D01*
X0013498Y0037397D02*
X0006178Y0037397D01*
X0006178Y0037896D02*
X0013958Y0037896D01*
X0014270Y0038394D02*
X0006178Y0038394D01*
X0006178Y0038893D02*
X0014482Y0038893D01*
X0014619Y0039391D02*
X0006178Y0039391D01*
X0006178Y0039890D02*
X0014668Y0039890D01*
X0014640Y0040388D02*
X0006178Y0040388D01*
X0006178Y0040887D02*
X0014549Y0040887D01*
X0014387Y0041385D02*
X0006178Y0041385D01*
X0006178Y0041884D02*
X0014121Y0041884D01*
X0013729Y0042382D02*
X0006178Y0042382D01*
X0006178Y0042881D02*
X0013159Y0042881D01*
X0012037Y0043379D02*
X0006178Y0043379D01*
X0006178Y0046500D02*
X0006178Y0053500D01*
X0011178Y0053500D01*
X0011861Y0053433D01*
X0012518Y0053234D01*
X0013123Y0052910D01*
X0013653Y0052475D01*
X0014089Y0051945D01*
X0014412Y0051339D01*
X0014611Y0050683D01*
X0014678Y0050000D01*
X0014611Y0049317D01*
X0014412Y0048661D01*
X0014089Y0048055D01*
X0013653Y0047525D01*
X0013123Y0047090D01*
X0012518Y0046766D01*
X0011861Y0046567D01*
X0011178Y0046500D01*
X0006178Y0046500D01*
X0006178Y0046869D02*
X0012710Y0046869D01*
X0013461Y0047368D02*
X0006178Y0047368D01*
X0006178Y0047866D02*
X0013933Y0047866D01*
X0014254Y0048365D02*
X0006178Y0048365D01*
X0006178Y0048863D02*
X0014473Y0048863D01*
X0014616Y0049362D02*
X0006178Y0049362D01*
X0006178Y0049860D02*
X0014665Y0049860D01*
X0014643Y0050359D02*
X0006178Y0050359D01*
X0006178Y0050857D02*
X0014558Y0050857D01*
X0014403Y0051356D02*
X0006178Y0051356D01*
X0006178Y0051854D02*
X0014137Y0051854D01*
X0013754Y0052353D02*
X0006178Y0052353D01*
X0006178Y0052851D02*
X0013195Y0052851D01*
X0012135Y0053350D02*
X0006178Y0053350D01*
X0006178Y0056500D02*
X0006178Y0063500D01*
X0011178Y0063500D01*
X0011861Y0063433D01*
X0012518Y0063234D01*
X0013123Y0062910D01*
X0013653Y0062475D01*
X0014089Y0061945D01*
X0014412Y0061339D01*
X0014611Y0060683D01*
X0014678Y0060000D01*
X0014611Y0059317D01*
X0014412Y0058661D01*
X0014089Y0058055D01*
X0013653Y0057525D01*
X0013123Y0057090D01*
X0012518Y0056766D01*
X0011861Y0056567D01*
X0011178Y0056500D01*
X0006178Y0056500D01*
X0006178Y0056839D02*
X0012654Y0056839D01*
X0013425Y0057338D02*
X0006178Y0057338D01*
X0006178Y0057836D02*
X0013909Y0057836D01*
X0014238Y0058335D02*
X0006178Y0058335D01*
X0006178Y0058833D02*
X0014464Y0058833D01*
X0014613Y0059332D02*
X0006178Y0059332D01*
X0006178Y0059830D02*
X0014662Y0059830D01*
X0014646Y0060329D02*
X0006178Y0060329D01*
X0006178Y0060827D02*
X0014567Y0060827D01*
X0014416Y0061326D02*
X0006178Y0061326D01*
X0006178Y0061824D02*
X0014153Y0061824D01*
X0013778Y0062323D02*
X0006178Y0062323D01*
X0006178Y0062821D02*
X0013231Y0062821D01*
X0012233Y0063320D02*
X0006178Y0063320D01*
X0006178Y0066500D02*
X0006178Y0073500D01*
X0011178Y0073500D01*
X0011861Y0073433D01*
X0012518Y0073234D01*
X0013123Y0072910D01*
X0013653Y0072475D01*
X0014089Y0071945D01*
X0014412Y0071339D01*
X0014611Y0070683D01*
X0014678Y0070000D01*
X0014611Y0069317D01*
X0014412Y0068661D01*
X0014089Y0068055D01*
X0013653Y0067525D01*
X0013123Y0067090D01*
X0012518Y0066766D01*
X0011861Y0066567D01*
X0011178Y0066500D01*
X0006178Y0066500D01*
X0006178Y0066809D02*
X0012598Y0066809D01*
X0013389Y0067308D02*
X0006178Y0067308D01*
X0006178Y0067806D02*
X0013884Y0067806D01*
X0014222Y0068305D02*
X0006178Y0068305D01*
X0006178Y0068803D02*
X0014455Y0068803D01*
X0014607Y0069302D02*
X0006178Y0069302D01*
X0006178Y0069801D02*
X0014659Y0069801D01*
X0014649Y0070299D02*
X0006178Y0070299D01*
X0006178Y0070798D02*
X0014576Y0070798D01*
X0014425Y0071296D02*
X0006178Y0071296D01*
X0006178Y0071795D02*
X0014169Y0071795D01*
X0013803Y0072293D02*
X0006178Y0072293D01*
X0006178Y0072792D02*
X0013267Y0072792D01*
X0012332Y0073290D02*
X0006178Y0073290D01*
X0006178Y0076500D02*
X0006178Y0083500D01*
X0011178Y0083500D01*
X0011861Y0083433D01*
X0012518Y0083234D01*
X0013123Y0082910D01*
X0013653Y0082475D01*
X0014089Y0081945D01*
X0014412Y0081339D01*
X0014611Y0080683D01*
X0014678Y0080000D01*
X0014611Y0079317D01*
X0014412Y0078661D01*
X0014089Y0078055D01*
X0013653Y0077525D01*
X0013123Y0077090D01*
X0012518Y0076766D01*
X0011861Y0076567D01*
X0011178Y0076500D01*
X0006178Y0076500D01*
X0006178Y0076780D02*
X0012543Y0076780D01*
X0013352Y0077278D02*
X0006178Y0077278D01*
X0006178Y0077777D02*
X0013860Y0077777D01*
X0014206Y0078275D02*
X0006178Y0078275D01*
X0006178Y0078774D02*
X0014446Y0078774D01*
X0014598Y0079272D02*
X0006178Y0079272D01*
X0006178Y0079771D02*
X0014656Y0079771D01*
X0014652Y0080269D02*
X0006178Y0080269D01*
X0006178Y0080768D02*
X0014585Y0080768D01*
X0014434Y0081266D02*
X0006178Y0081266D01*
X0006178Y0081765D02*
X0014185Y0081765D01*
X0013827Y0082263D02*
X0006178Y0082263D01*
X0006178Y0082762D02*
X0013304Y0082762D01*
X0012430Y0083260D02*
X0006178Y0083260D01*
X0006178Y0086500D02*
X0006178Y0093500D01*
X0011178Y0093500D01*
X0011861Y0093433D01*
X0012518Y0093234D01*
X0013123Y0092910D01*
X0013653Y0092475D01*
X0014089Y0091945D01*
X0014412Y0091339D01*
X0014611Y0090683D01*
X0014678Y0090000D01*
X0014611Y0089317D01*
X0014412Y0088661D01*
X0014089Y0088055D01*
X0013653Y0087525D01*
X0013123Y0087090D01*
X0012518Y0086766D01*
X0011861Y0086567D01*
X0011178Y0086500D01*
X0006178Y0086500D01*
X0006178Y0086750D02*
X0012463Y0086750D01*
X0013316Y0087248D02*
X0006178Y0087248D01*
X0006178Y0087747D02*
X0013835Y0087747D01*
X0014190Y0088245D02*
X0006178Y0088245D01*
X0006178Y0088744D02*
X0014437Y0088744D01*
X0014589Y0089242D02*
X0006178Y0089242D01*
X0006178Y0089741D02*
X0014653Y0089741D01*
X0014655Y0090239D02*
X0006178Y0090239D01*
X0006178Y0090738D02*
X0014594Y0090738D01*
X0014443Y0091237D02*
X0006178Y0091237D01*
X0006178Y0091735D02*
X0014201Y0091735D01*
X0013851Y0092234D02*
X0006178Y0092234D01*
X0006178Y0092732D02*
X0013340Y0092732D01*
X0012524Y0093231D02*
X0006178Y0093231D01*
X0006178Y0096500D02*
X0006178Y0103500D01*
X0011178Y0103500D01*
X0011861Y0103433D01*
X0012518Y0103234D01*
X0013123Y0102910D01*
X0013653Y0102475D01*
X0014089Y0101945D01*
X0014412Y0101339D01*
X0014611Y0100683D01*
X0014678Y0100000D01*
X0014611Y0099317D01*
X0014412Y0098661D01*
X0014089Y0098055D01*
X0013653Y0097525D01*
X0013123Y0097090D01*
X0012518Y0096766D01*
X0011861Y0096567D01*
X0011178Y0096500D01*
X0006178Y0096500D01*
X0006178Y0096720D02*
X0012365Y0096720D01*
X0013280Y0097219D02*
X0006178Y0097219D01*
X0006178Y0097717D02*
X0013811Y0097717D01*
X0014174Y0098216D02*
X0006178Y0098216D01*
X0006178Y0098714D02*
X0014428Y0098714D01*
X0014580Y0099213D02*
X0006178Y0099213D01*
X0006178Y0099711D02*
X0014650Y0099711D01*
X0014658Y0100210D02*
X0006178Y0100210D01*
X0006178Y0100708D02*
X0014603Y0100708D01*
X0014452Y0101207D02*
X0006178Y0101207D01*
X0006178Y0101705D02*
X0014216Y0101705D01*
X0013876Y0102204D02*
X0006178Y0102204D01*
X0006178Y0102702D02*
X0013376Y0102702D01*
X0012579Y0103201D02*
X0006178Y0103201D01*
X0006178Y0106500D02*
X0006178Y0113500D01*
X0011178Y0113500D01*
X0011861Y0113433D01*
X0012518Y0113234D01*
X0013123Y0112910D01*
X0013653Y0112475D01*
X0014089Y0111945D01*
X0014412Y0111339D01*
X0014611Y0110683D01*
X0014678Y0110000D01*
X0014611Y0109317D01*
X0014412Y0108661D01*
X0014089Y0108055D01*
X0013653Y0107525D01*
X0013123Y0107090D01*
X0012518Y0106766D01*
X0011861Y0106567D01*
X0011178Y0106500D01*
X0006178Y0106500D01*
X0006178Y0106690D02*
X0012267Y0106690D01*
X0013244Y0107189D02*
X0006178Y0107189D01*
X0006178Y0107687D02*
X0013786Y0107687D01*
X0014158Y0108186D02*
X0006178Y0108186D01*
X0006178Y0108684D02*
X0014419Y0108684D01*
X0014570Y0109183D02*
X0006178Y0109183D01*
X0006178Y0109681D02*
X0014647Y0109681D01*
X0014661Y0110180D02*
X0006178Y0110180D01*
X0006178Y0110678D02*
X0014612Y0110678D01*
X0014461Y0111177D02*
X0006178Y0111177D01*
X0006178Y0111675D02*
X0014232Y0111675D01*
X0013900Y0112174D02*
X0006178Y0112174D01*
X0006178Y0112672D02*
X0013413Y0112672D01*
X0012635Y0113171D02*
X0006178Y0113171D01*
X0006178Y0116500D02*
X0006178Y0123500D01*
X0011178Y0123500D01*
X0011861Y0123433D01*
X0012518Y0123234D01*
X0013123Y0122910D01*
X0013653Y0122475D01*
X0014089Y0121945D01*
X0014412Y0121339D01*
X0014611Y0120683D01*
X0014678Y0120000D01*
X0014611Y0119317D01*
X0014412Y0118661D01*
X0014089Y0118055D01*
X0013653Y0117525D01*
X0013123Y0117090D01*
X0012518Y0116766D01*
X0011861Y0116567D01*
X0011178Y0116500D01*
X0006178Y0116500D01*
X0006178Y0116661D02*
X0012169Y0116661D01*
X0013207Y0117159D02*
X0006178Y0117159D01*
X0006178Y0117658D02*
X0013762Y0117658D01*
X0014142Y0118156D02*
X0006178Y0118156D01*
X0006178Y0118655D02*
X0014409Y0118655D01*
X0014561Y0119153D02*
X0006178Y0119153D01*
X0006178Y0119652D02*
X0014644Y0119652D01*
X0014664Y0120150D02*
X0006178Y0120150D01*
X0006178Y0120649D02*
X0014615Y0120649D01*
X0014470Y0121147D02*
X0006178Y0121147D01*
X0006178Y0121646D02*
X0014248Y0121646D01*
X0013925Y0122144D02*
X0006178Y0122144D01*
X0006178Y0122643D02*
X0013449Y0122643D01*
X0012691Y0123141D02*
X0006178Y0123141D01*
X0006178Y0126500D02*
X0006178Y0133500D01*
X0011178Y0133500D01*
X0011861Y0133433D01*
X0012518Y0133234D01*
X0013123Y0132910D01*
X0013653Y0132475D01*
X0014089Y0131945D01*
X0014412Y0131339D01*
X0014611Y0130683D01*
X0014678Y0130000D01*
X0014611Y0129317D01*
X0014412Y0128661D01*
X0014089Y0128055D01*
X0013653Y0127525D01*
X0013123Y0127090D01*
X0012518Y0126766D01*
X0011861Y0126567D01*
X0011178Y0126500D01*
X0006178Y0126500D01*
X0006178Y0126631D02*
X0012071Y0126631D01*
X0013171Y0127129D02*
X0006178Y0127129D01*
X0006178Y0127628D02*
X0013738Y0127628D01*
X0014126Y0128126D02*
X0006178Y0128126D01*
X0006178Y0128625D02*
X0014393Y0128625D01*
X0014552Y0129123D02*
X0006178Y0129123D01*
X0006178Y0129622D02*
X0014641Y0129622D01*
X0014667Y0130120D02*
X0006178Y0130120D01*
X0006178Y0130619D02*
X0014617Y0130619D01*
X0014479Y0131117D02*
X0006178Y0131117D01*
X0006178Y0131616D02*
X0014264Y0131616D01*
X0013949Y0132114D02*
X0006178Y0132114D01*
X0006178Y0132613D02*
X0013485Y0132613D01*
X0012746Y0133111D02*
X0006178Y0133111D01*
X0077678Y0130000D02*
X0077746Y0130683D01*
X0077945Y0131339D01*
X0078268Y0131945D01*
X0078704Y0132475D01*
X0079234Y0132910D01*
X0079839Y0133234D01*
X0080496Y0133433D01*
X0081178Y0133500D01*
X0086178Y0133500D01*
X0086178Y0126500D01*
X0081178Y0126500D01*
X0080496Y0126567D01*
X0079839Y0126766D01*
X0079234Y0127090D01*
X0078704Y0127525D01*
X0078268Y0128055D01*
X0077945Y0128661D01*
X0077746Y0129317D01*
X0077678Y0130000D01*
X0077690Y0130120D02*
X0086178Y0130120D01*
X0086178Y0129622D02*
X0077716Y0129622D01*
X0077805Y0129123D02*
X0086178Y0129123D01*
X0086178Y0128625D02*
X0077964Y0128625D01*
X0078230Y0128126D02*
X0086178Y0128126D01*
X0086178Y0127628D02*
X0078619Y0127628D01*
X0079186Y0127129D02*
X0086178Y0127129D01*
X0086178Y0126631D02*
X0080286Y0126631D01*
X0080496Y0123433D02*
X0081178Y0123500D01*
X0086178Y0123500D01*
X0086178Y0116500D01*
X0081178Y0116500D01*
X0080496Y0116567D01*
X0079839Y0116766D01*
X0079234Y0117090D01*
X0078704Y0117525D01*
X0078268Y0118055D01*
X0077945Y0118661D01*
X0077746Y0119317D01*
X0077678Y0120000D01*
X0077746Y0120683D01*
X0077945Y0121339D01*
X0078268Y0121945D01*
X0078704Y0122475D01*
X0079234Y0122910D01*
X0079839Y0123234D01*
X0080496Y0123433D01*
X0079666Y0123141D02*
X0086178Y0123141D01*
X0086178Y0122643D02*
X0078908Y0122643D01*
X0078432Y0122144D02*
X0086178Y0122144D01*
X0086178Y0121646D02*
X0078109Y0121646D01*
X0077887Y0121147D02*
X0086178Y0121147D01*
X0086178Y0120649D02*
X0077742Y0120649D01*
X0077693Y0120150D02*
X0086178Y0120150D01*
X0086178Y0119652D02*
X0077713Y0119652D01*
X0077795Y0119153D02*
X0086178Y0119153D01*
X0086178Y0118655D02*
X0077948Y0118655D01*
X0078215Y0118156D02*
X0086178Y0118156D01*
X0086178Y0117658D02*
X0078595Y0117658D01*
X0079150Y0117159D02*
X0086178Y0117159D01*
X0086178Y0116661D02*
X0080188Y0116661D01*
X0080496Y0113433D02*
X0081178Y0113500D01*
X0086178Y0113500D01*
X0086178Y0106500D01*
X0081178Y0106500D01*
X0080496Y0106567D01*
X0079839Y0106766D01*
X0079234Y0107090D01*
X0078704Y0107525D01*
X0078268Y0108055D01*
X0077945Y0108661D01*
X0077746Y0109317D01*
X0077678Y0110000D01*
X0077746Y0110683D01*
X0077945Y0111339D01*
X0078268Y0111945D01*
X0078704Y0112475D01*
X0079234Y0112910D01*
X0079839Y0113234D01*
X0080496Y0113433D01*
X0079722Y0113171D02*
X0086178Y0113171D01*
X0086178Y0112672D02*
X0078944Y0112672D01*
X0078457Y0112174D02*
X0086178Y0112174D01*
X0086178Y0111675D02*
X0078125Y0111675D01*
X0077896Y0111177D02*
X0086178Y0111177D01*
X0086178Y0110678D02*
X0077745Y0110678D01*
X0077696Y0110180D02*
X0086178Y0110180D01*
X0086178Y0109681D02*
X0077710Y0109681D01*
X0077786Y0109183D02*
X0086178Y0109183D01*
X0086178Y0108684D02*
X0077938Y0108684D01*
X0078199Y0108186D02*
X0086178Y0108186D01*
X0086178Y0107687D02*
X0078570Y0107687D01*
X0079113Y0107189D02*
X0086178Y0107189D01*
X0086178Y0106690D02*
X0080090Y0106690D01*
X0080496Y0103433D02*
X0081178Y0103500D01*
X0086178Y0103500D01*
X0086178Y0096500D01*
X0081178Y0096500D01*
X0080496Y0096567D01*
X0079839Y0096766D01*
X0079234Y0097090D01*
X0078704Y0097525D01*
X0078268Y0098055D01*
X0077945Y0098661D01*
X0077746Y0099317D01*
X0077678Y0100000D01*
X0077746Y0100683D01*
X0077945Y0101339D01*
X0078268Y0101945D01*
X0078704Y0102475D01*
X0079234Y0102910D01*
X0079839Y0103234D01*
X0080496Y0103433D01*
X0079778Y0103201D02*
X0086178Y0103201D01*
X0086178Y0102702D02*
X0078981Y0102702D01*
X0078481Y0102204D02*
X0086178Y0102204D01*
X0086178Y0101705D02*
X0078140Y0101705D01*
X0077905Y0101207D02*
X0086178Y0101207D01*
X0086178Y0100708D02*
X0077753Y0100708D01*
X0077699Y0100210D02*
X0086178Y0100210D01*
X0086178Y0099711D02*
X0077707Y0099711D01*
X0077777Y0099213D02*
X0086178Y0099213D01*
X0086178Y0098714D02*
X0077929Y0098714D01*
X0078183Y0098216D02*
X0086178Y0098216D01*
X0086178Y0097717D02*
X0078546Y0097717D01*
X0079077Y0097219D02*
X0086178Y0097219D01*
X0086178Y0096720D02*
X0079992Y0096720D01*
X0080496Y0093433D02*
X0081178Y0093500D01*
X0086178Y0093500D01*
X0086178Y0086500D01*
X0081178Y0086500D01*
X0080496Y0086567D01*
X0079839Y0086766D01*
X0079234Y0087090D01*
X0078704Y0087525D01*
X0078268Y0088055D01*
X0077945Y0088661D01*
X0077746Y0089317D01*
X0077678Y0090000D01*
X0077746Y0090683D01*
X0077945Y0091339D01*
X0078268Y0091945D01*
X0078704Y0092475D01*
X0079234Y0092910D01*
X0079839Y0093234D01*
X0080496Y0093433D01*
X0079833Y0093231D02*
X0086178Y0093231D01*
X0086178Y0092732D02*
X0079017Y0092732D01*
X0078506Y0092234D02*
X0086178Y0092234D01*
X0086178Y0091735D02*
X0078156Y0091735D01*
X0077914Y0091237D02*
X0086178Y0091237D01*
X0086178Y0090738D02*
X0077762Y0090738D01*
X0077702Y0090239D02*
X0086178Y0090239D01*
X0086178Y0089741D02*
X0077704Y0089741D01*
X0077768Y0089242D02*
X0086178Y0089242D01*
X0086178Y0088744D02*
X0077920Y0088744D01*
X0078167Y0088245D02*
X0086178Y0088245D01*
X0086178Y0087747D02*
X0078522Y0087747D01*
X0079041Y0087248D02*
X0086178Y0087248D01*
X0086178Y0086750D02*
X0079894Y0086750D01*
X0080496Y0083433D02*
X0081178Y0083500D01*
X0086178Y0083500D01*
X0086178Y0076500D01*
X0081178Y0076500D01*
X0080496Y0076567D01*
X0079839Y0076766D01*
X0079234Y0077090D01*
X0078704Y0077525D01*
X0078268Y0078055D01*
X0077945Y0078661D01*
X0077746Y0079317D01*
X0077678Y0080000D01*
X0077746Y0080683D01*
X0077945Y0081339D01*
X0078268Y0081945D01*
X0078704Y0082475D01*
X0079234Y0082910D01*
X0079839Y0083234D01*
X0080496Y0083433D01*
X0079927Y0083260D02*
X0086178Y0083260D01*
X0086178Y0082762D02*
X0079053Y0082762D01*
X0078530Y0082263D02*
X0086178Y0082263D01*
X0086178Y0081765D02*
X0078172Y0081765D01*
X0077923Y0081266D02*
X0086178Y0081266D01*
X0086178Y0080768D02*
X0077771Y0080768D01*
X0077705Y0080269D02*
X0086178Y0080269D01*
X0086178Y0079771D02*
X0077701Y0079771D01*
X0077759Y0079272D02*
X0086178Y0079272D01*
X0086178Y0078774D02*
X0077911Y0078774D01*
X0078151Y0078275D02*
X0086178Y0078275D01*
X0086178Y0077777D02*
X0078497Y0077777D01*
X0079004Y0077278D02*
X0086178Y0077278D01*
X0086178Y0076780D02*
X0079814Y0076780D01*
X0080496Y0073433D02*
X0081178Y0073500D01*
X0086178Y0073500D01*
X0086178Y0066500D01*
X0081178Y0066500D01*
X0080496Y0066567D01*
X0079839Y0066766D01*
X0079234Y0067090D01*
X0078704Y0067525D01*
X0078268Y0068055D01*
X0077945Y0068661D01*
X0077746Y0069317D01*
X0077678Y0070000D01*
X0077746Y0070683D01*
X0077945Y0071339D01*
X0078268Y0071945D01*
X0078704Y0072475D01*
X0079234Y0072910D01*
X0079839Y0073234D01*
X0080496Y0073433D01*
X0080025Y0073290D02*
X0086178Y0073290D01*
X0086178Y0072792D02*
X0079089Y0072792D01*
X0078554Y0072293D02*
X0086178Y0072293D01*
X0086178Y0071795D02*
X0078188Y0071795D01*
X0077932Y0071296D02*
X0086178Y0071296D01*
X0086178Y0070798D02*
X0077780Y0070798D01*
X0077708Y0070299D02*
X0086178Y0070299D01*
X0086178Y0069801D02*
X0077698Y0069801D01*
X0077750Y0069302D02*
X0086178Y0069302D01*
X0086178Y0068803D02*
X0077902Y0068803D01*
X0078135Y0068305D02*
X0086178Y0068305D01*
X0086178Y0067806D02*
X0078473Y0067806D01*
X0078968Y0067308D02*
X0086178Y0067308D01*
X0086178Y0066809D02*
X0079759Y0066809D01*
X0080496Y0063433D02*
X0081178Y0063500D01*
X0086178Y0063500D01*
X0086178Y0056500D01*
X0081178Y0056500D01*
X0080496Y0056567D01*
X0079839Y0056766D01*
X0079234Y0057090D01*
X0078704Y0057525D01*
X0078268Y0058055D01*
X0077945Y0058661D01*
X0077746Y0059317D01*
X0077678Y0060000D01*
X0077746Y0060683D01*
X0077945Y0061339D01*
X0078268Y0061945D01*
X0078704Y0062475D01*
X0079234Y0062910D01*
X0079839Y0063234D01*
X0080496Y0063433D01*
X0080124Y0063320D02*
X0086178Y0063320D01*
X0086178Y0062821D02*
X0079126Y0062821D01*
X0078579Y0062323D02*
X0086178Y0062323D01*
X0086178Y0061824D02*
X0078204Y0061824D01*
X0077941Y0061326D02*
X0086178Y0061326D01*
X0086178Y0060827D02*
X0077790Y0060827D01*
X0077711Y0060329D02*
X0086178Y0060329D01*
X0086178Y0059830D02*
X0077695Y0059830D01*
X0077744Y0059332D02*
X0086178Y0059332D01*
X0086178Y0058833D02*
X0077893Y0058833D01*
X0078119Y0058335D02*
X0086178Y0058335D01*
X0086178Y0057836D02*
X0078448Y0057836D01*
X0078932Y0057338D02*
X0086178Y0057338D01*
X0086178Y0056839D02*
X0079703Y0056839D01*
X0080496Y0053433D02*
X0081178Y0053500D01*
X0086178Y0053500D01*
X0086178Y0046500D01*
X0081178Y0046500D01*
X0080496Y0046567D01*
X0079839Y0046766D01*
X0079234Y0047090D01*
X0078704Y0047525D01*
X0078268Y0048055D01*
X0077945Y0048661D01*
X0077746Y0049317D01*
X0077678Y0050000D01*
X0077746Y0050683D01*
X0077945Y0051339D01*
X0078268Y0051945D01*
X0078704Y0052475D01*
X0079234Y0052910D01*
X0079839Y0053234D01*
X0080496Y0053433D01*
X0080222Y0053350D02*
X0086178Y0053350D01*
X0086178Y0052851D02*
X0079162Y0052851D01*
X0078603Y0052353D02*
X0086178Y0052353D01*
X0086178Y0051854D02*
X0078220Y0051854D01*
X0077954Y0051356D02*
X0086178Y0051356D01*
X0086178Y0050857D02*
X0077799Y0050857D01*
X0077714Y0050359D02*
X0086178Y0050359D01*
X0086178Y0049860D02*
X0077692Y0049860D01*
X0077741Y0049362D02*
X0086178Y0049362D01*
X0086178Y0048863D02*
X0077883Y0048863D01*
X0078103Y0048365D02*
X0086178Y0048365D01*
X0086178Y0047866D02*
X0078424Y0047866D01*
X0078896Y0047368D02*
X0086178Y0047368D01*
X0086178Y0046869D02*
X0079647Y0046869D01*
X0080496Y0043433D02*
X0081178Y0043500D01*
X0086178Y0043500D01*
X0086178Y0036500D01*
X0081178Y0036500D01*
X0080496Y0036567D01*
X0079839Y0036766D01*
X0079234Y0037090D01*
X0078704Y0037525D01*
X0078268Y0038055D01*
X0077945Y0038661D01*
X0077746Y0039317D01*
X0077678Y0040000D01*
X0077746Y0040683D01*
X0077945Y0041339D01*
X0078268Y0041945D01*
X0078704Y0042475D01*
X0079234Y0042910D01*
X0079839Y0043234D01*
X0080496Y0043433D01*
X0080320Y0043379D02*
X0086178Y0043379D01*
X0086178Y0042881D02*
X0079198Y0042881D01*
X0078628Y0042382D02*
X0086178Y0042382D01*
X0086178Y0041884D02*
X0078236Y0041884D01*
X0077969Y0041385D02*
X0086178Y0041385D01*
X0086178Y0040887D02*
X0077808Y0040887D01*
X0077717Y0040388D02*
X0086178Y0040388D01*
X0086178Y0039890D02*
X0077689Y0039890D01*
X0077738Y0039391D02*
X0086178Y0039391D01*
X0086178Y0038893D02*
X0077874Y0038893D01*
X0078087Y0038394D02*
X0086178Y0038394D01*
X0086178Y0037896D02*
X0078399Y0037896D01*
X0078859Y0037397D02*
X0086178Y0037397D01*
X0086178Y0036899D02*
X0079591Y0036899D01*
X0080496Y0033433D02*
X0081178Y0033500D01*
X0086178Y0033500D01*
X0086178Y0026500D01*
X0081178Y0026500D01*
X0080496Y0026567D01*
X0079839Y0026766D01*
X0079234Y0027090D01*
X0078704Y0027525D01*
X0078268Y0028055D01*
X0077945Y0028661D01*
X0077746Y0029317D01*
X0077678Y0030000D01*
X0077746Y0030683D01*
X0077945Y0031339D01*
X0078268Y0031945D01*
X0078704Y0032475D01*
X0079234Y0032910D01*
X0079839Y0033234D01*
X0080496Y0033433D01*
X0080418Y0033409D02*
X0086178Y0033409D01*
X0086178Y0032911D02*
X0079235Y0032911D01*
X0078652Y0032412D02*
X0086178Y0032412D01*
X0086178Y0031914D02*
X0078252Y0031914D01*
X0077985Y0031415D02*
X0086178Y0031415D01*
X0086178Y0030917D02*
X0077817Y0030917D01*
X0077720Y0030418D02*
X0086178Y0030418D01*
X0086178Y0029920D02*
X0077686Y0029920D01*
X0077735Y0029421D02*
X0086178Y0029421D01*
X0086178Y0028923D02*
X0077865Y0028923D01*
X0078071Y0028424D02*
X0086178Y0028424D01*
X0086178Y0027926D02*
X0078375Y0027926D01*
X0078823Y0027427D02*
X0086178Y0027427D01*
X0086178Y0026929D02*
X0079536Y0026929D01*
X0080496Y0023433D02*
X0081178Y0023500D01*
X0086178Y0023500D01*
X0086178Y0016500D01*
X0081178Y0016500D01*
X0080496Y0016567D01*
X0079839Y0016766D01*
X0079234Y0017090D01*
X0078704Y0017525D01*
X0078268Y0018055D01*
X0077945Y0018661D01*
X0077746Y0019317D01*
X0077678Y0020000D01*
X0077746Y0020683D01*
X0077945Y0021339D01*
X0078268Y0021945D01*
X0078704Y0022475D01*
X0079234Y0022910D01*
X0079839Y0023234D01*
X0080496Y0023433D01*
X0080559Y0023439D02*
X0086178Y0023439D01*
X0086178Y0022940D02*
X0079291Y0022940D01*
X0078677Y0022442D02*
X0086178Y0022442D01*
X0086178Y0021943D02*
X0078268Y0021943D01*
X0078001Y0021445D02*
X0086178Y0021445D01*
X0086178Y0020946D02*
X0077826Y0020946D01*
X0077723Y0020448D02*
X0086178Y0020448D01*
X0086178Y0019949D02*
X0077683Y0019949D01*
X0077733Y0019451D02*
X0086178Y0019451D01*
X0086178Y0018952D02*
X0077856Y0018952D01*
X0078055Y0018454D02*
X0086178Y0018454D01*
X0086178Y0017955D02*
X0078351Y0017955D01*
X0078787Y0017457D02*
X0086178Y0017457D01*
X0086178Y0016958D02*
X0079480Y0016958D01*
X0077739Y0130619D02*
X0086178Y0130619D01*
X0086178Y0131117D02*
X0077878Y0131117D01*
X0078093Y0131616D02*
X0086178Y0131616D01*
X0086178Y0132114D02*
X0078408Y0132114D01*
X0078872Y0132613D02*
X0086178Y0132613D01*
X0086178Y0133111D02*
X0079611Y0133111D01*
D13*
X0081178Y0130000D03*
X0081178Y0120000D03*
X0081178Y0110000D03*
X0081178Y0100000D03*
X0081178Y0090000D03*
X0081178Y0080000D03*
X0081178Y0070000D03*
X0081178Y0060000D03*
X0081178Y0050000D03*
X0081178Y0040000D03*
X0081178Y0030000D03*
X0081178Y0020000D03*
X0011178Y0020000D03*
X0011178Y0030000D03*
X0011178Y0040000D03*
X0011178Y0050000D03*
X0011178Y0060000D03*
X0011178Y0070000D03*
X0011178Y0080000D03*
X0011178Y0090000D03*
X0011178Y0100000D03*
X0011178Y0110000D03*
X0011178Y0120000D03*
X0011178Y0130000D03*
D14*
X0006178Y0130000D03*
X0006178Y0120000D03*
X0006178Y0110000D03*
X0006178Y0100000D03*
X0006178Y0090000D03*
X0006178Y0080000D03*
X0006178Y0070000D03*
X0006178Y0060000D03*
X0006178Y0050000D03*
X0006178Y0040000D03*
X0006178Y0030000D03*
X0006178Y0020000D03*
X0086178Y0020000D03*
X0086178Y0030000D03*
X0086178Y0040000D03*
X0086178Y0050000D03*
X0086178Y0060000D03*
X0086178Y0070000D03*
X0086178Y0080000D03*
X0086178Y0090000D03*
X0086178Y0100000D03*
X0086178Y0110000D03*
X0086178Y0120000D03*
X0086178Y0130000D03*
D15*
X0050178Y0141000D03*
X0042178Y0141000D03*
X0021178Y0130000D03*
X0021178Y0100000D03*
D16*
X0071178Y0120000D03*
X0071178Y0130000D03*
X0021178Y0060000D03*
M02*
