G75*
%MOIN*%
%OFA0B0*%
%FSLAX25Y25*%
%IPPOS*%
%LPD*%
%AMOC8*
5,1,8,0,0,1.08239X$1,22.5*
%
%ADD10R,0.03200X0.02600*%
%ADD11R,0.02375X0.06115*%
%ADD12R,0.06706X0.08280*%
%ADD13C,0.03162*%
%ADD14C,0.05169*%
%ADD15R,0.05721X0.03359*%
%ADD16R,0.03950X0.03950*%
%ADD17C,0.07800*%
%ADD18C,0.05700*%
%ADD19R,0.05524X0.02178*%
%ADD20R,0.04737X0.04737*%
%ADD21R,0.02178X0.05524*%
%ADD22C,0.02769*%
%ADD23C,0.00039*%
%ADD24R,0.04934X0.09461*%
%ADD25R,0.04737X0.04934*%
%ADD26R,0.02600X0.03200*%
%ADD27R,0.04900X0.03600*%
%ADD28R,0.03600X0.04900*%
%ADD29C,0.00100*%
%ADD30R,0.04737X0.08674*%
%ADD31R,0.11824X0.03950*%
%ADD32R,0.04300X0.04300*%
%ADD33R,0.11300X0.10800*%
%ADD34R,0.03800X0.05800*%
%ADD35R,0.05524X0.02965*%
%ADD36R,0.11430X0.03950*%
%ADD37R,0.04737X0.03950*%
%ADD38R,0.02400X0.02000*%
%ADD39R,0.02000X0.02400*%
%ADD40R,0.01587X0.02808*%
%ADD41R,0.01969X0.01378*%
D10*
X0036078Y0007800D03*
X0036078Y0011600D03*
X0036078Y0014400D03*
X0036078Y0018200D03*
X0059978Y0027100D03*
X0059978Y0030900D03*
X0072178Y0030900D03*
X0072178Y0027100D03*
X0072626Y0080347D03*
X0072626Y0084147D03*
X0052578Y0087000D03*
X0052578Y0090800D03*
X0043078Y0090800D03*
X0043078Y0087000D03*
X0037878Y0087000D03*
X0034078Y0087000D03*
X0034078Y0090800D03*
X0037878Y0090800D03*
X0022978Y0090800D03*
X0022978Y0087000D03*
X0050978Y0114900D03*
X0050978Y0118700D03*
D11*
X0051297Y0129469D03*
X0048738Y0129469D03*
X0046178Y0129469D03*
X0043619Y0129469D03*
X0041060Y0129469D03*
D12*
X0042241Y0139961D03*
X0050115Y0140000D03*
D13*
X0053856Y0131732D03*
X0038501Y0131732D03*
D14*
X0035253Y0137816D02*
X0035253Y0142184D01*
X0057104Y0142184D02*
X0057104Y0137816D01*
D15*
X0056297Y0106051D03*
X0056297Y0099949D03*
X0071060Y0099949D03*
X0071060Y0106051D03*
X0036060Y0106051D03*
X0036060Y0099949D03*
X0021297Y0099949D03*
X0021297Y0106051D03*
D16*
X0064504Y0090000D03*
X0070410Y0090000D03*
D17*
X0081178Y0090000D03*
X0081178Y0080000D03*
X0081178Y0070000D03*
X0081178Y0060000D03*
X0081178Y0050000D03*
X0081178Y0040000D03*
X0081178Y0030000D03*
X0081178Y0020000D03*
X0011178Y0020000D03*
X0011178Y0030000D03*
X0011178Y0040000D03*
X0011178Y0050000D03*
X0011178Y0060000D03*
X0011178Y0070000D03*
X0011178Y0080000D03*
X0011178Y0090000D03*
X0011178Y0100000D03*
X0011178Y0110000D03*
X0011178Y0120000D03*
X0011178Y0130000D03*
X0081178Y0130000D03*
X0081178Y0120000D03*
X0081178Y0110000D03*
X0081178Y0100000D03*
D18*
X0086178Y0100000D03*
X0086178Y0110000D03*
X0086178Y0120000D03*
X0086178Y0130000D03*
X0086178Y0090000D03*
X0086178Y0080000D03*
X0086178Y0070000D03*
X0086178Y0060000D03*
X0086178Y0050000D03*
X0086178Y0040000D03*
X0086178Y0030000D03*
X0086178Y0020000D03*
X0006178Y0020000D03*
X0006178Y0030000D03*
X0006178Y0040000D03*
X0006178Y0050000D03*
X0006178Y0060000D03*
X0006178Y0070000D03*
X0006178Y0080000D03*
X0006178Y0090000D03*
X0006178Y0100000D03*
X0006178Y0110000D03*
X0006178Y0120000D03*
X0006178Y0130000D03*
D19*
X0026297Y0073657D03*
X0026297Y0070902D03*
X0026297Y0068146D03*
X0026297Y0065390D03*
X0026297Y0062634D03*
X0026297Y0059878D03*
X0026297Y0057122D03*
X0026297Y0054366D03*
X0026297Y0051610D03*
X0026297Y0048854D03*
X0026297Y0046098D03*
X0026297Y0043343D03*
X0066060Y0043343D03*
X0066060Y0046098D03*
X0066060Y0048854D03*
X0066060Y0051610D03*
X0066060Y0054366D03*
X0066060Y0057122D03*
X0066060Y0059878D03*
X0066060Y0062634D03*
X0066060Y0065390D03*
X0066060Y0068146D03*
X0066060Y0070902D03*
X0066060Y0073657D03*
D20*
X0066454Y0080744D03*
X0055627Y0067949D03*
X0046178Y0067949D03*
X0036730Y0067949D03*
X0036730Y0058500D03*
X0046178Y0058500D03*
X0055627Y0058500D03*
X0055627Y0049051D03*
X0046178Y0049051D03*
X0036730Y0049051D03*
X0025903Y0036256D03*
X0066454Y0036256D03*
X0025903Y0080744D03*
D21*
X0032399Y0080350D03*
X0035155Y0080350D03*
X0037911Y0080350D03*
X0040667Y0080350D03*
X0043423Y0080350D03*
X0046178Y0080350D03*
X0048934Y0080350D03*
X0051690Y0080350D03*
X0054446Y0080350D03*
X0057202Y0080350D03*
X0059958Y0080350D03*
X0059958Y0036650D03*
X0057202Y0036650D03*
X0054446Y0036650D03*
X0051690Y0036650D03*
X0048934Y0036650D03*
X0046178Y0036650D03*
X0043423Y0036650D03*
X0040667Y0036650D03*
X0037911Y0036650D03*
X0035155Y0036650D03*
X0032399Y0036650D03*
D22*
X0032399Y0074248D03*
D23*
X0029033Y0075350D02*
X0023560Y0075350D01*
X0023560Y0077476D01*
X0028442Y0077476D01*
X0029033Y0076886D01*
X0029033Y0075350D01*
X0029033Y0075353D02*
X0023560Y0075353D01*
X0023560Y0075391D02*
X0029033Y0075391D01*
X0029033Y0075429D02*
X0023560Y0075429D01*
X0023560Y0075467D02*
X0029033Y0075467D01*
X0029033Y0075505D02*
X0023560Y0075505D01*
X0023560Y0075543D02*
X0029033Y0075543D01*
X0029033Y0075581D02*
X0023560Y0075581D01*
X0023560Y0075619D02*
X0029033Y0075619D01*
X0029033Y0075657D02*
X0023560Y0075657D01*
X0023560Y0075694D02*
X0029033Y0075694D01*
X0029033Y0075732D02*
X0023560Y0075732D01*
X0023560Y0075770D02*
X0029033Y0075770D01*
X0029033Y0075808D02*
X0023560Y0075808D01*
X0023560Y0075846D02*
X0029033Y0075846D01*
X0029033Y0075884D02*
X0023560Y0075884D01*
X0023560Y0075922D02*
X0029033Y0075922D01*
X0029033Y0075960D02*
X0023560Y0075960D01*
X0023560Y0075997D02*
X0029033Y0075997D01*
X0029033Y0076035D02*
X0023560Y0076035D01*
X0023560Y0076073D02*
X0029033Y0076073D01*
X0029033Y0076111D02*
X0023560Y0076111D01*
X0023560Y0076149D02*
X0029033Y0076149D01*
X0029033Y0076187D02*
X0023560Y0076187D01*
X0023560Y0076225D02*
X0029033Y0076225D01*
X0029033Y0076263D02*
X0023560Y0076263D01*
X0023560Y0076301D02*
X0029033Y0076301D01*
X0029033Y0076338D02*
X0023560Y0076338D01*
X0023560Y0076376D02*
X0029033Y0076376D01*
X0029033Y0076414D02*
X0023560Y0076414D01*
X0023560Y0076452D02*
X0029033Y0076452D01*
X0029033Y0076490D02*
X0023560Y0076490D01*
X0023560Y0076528D02*
X0029033Y0076528D01*
X0029033Y0076566D02*
X0023560Y0076566D01*
X0023560Y0076604D02*
X0029033Y0076604D01*
X0029033Y0076641D02*
X0023560Y0076641D01*
X0023560Y0076679D02*
X0029033Y0076679D01*
X0029033Y0076717D02*
X0023560Y0076717D01*
X0023560Y0076755D02*
X0029033Y0076755D01*
X0029033Y0076793D02*
X0023560Y0076793D01*
X0023560Y0076831D02*
X0029033Y0076831D01*
X0029033Y0076869D02*
X0023560Y0076869D01*
X0023560Y0076907D02*
X0029012Y0076907D01*
X0028974Y0076944D02*
X0023560Y0076944D01*
X0023560Y0076982D02*
X0028936Y0076982D01*
X0028898Y0077020D02*
X0023560Y0077020D01*
X0023560Y0077058D02*
X0028860Y0077058D01*
X0028823Y0077096D02*
X0023560Y0077096D01*
X0023560Y0077134D02*
X0028785Y0077134D01*
X0028747Y0077172D02*
X0023560Y0077172D01*
X0023560Y0077210D02*
X0028709Y0077210D01*
X0028671Y0077248D02*
X0023560Y0077248D01*
X0023560Y0077285D02*
X0028633Y0077285D01*
X0028595Y0077323D02*
X0023560Y0077323D01*
X0023560Y0077361D02*
X0028557Y0077361D01*
X0028520Y0077399D02*
X0023560Y0077399D01*
X0023560Y0077437D02*
X0028482Y0077437D01*
X0028444Y0077475D02*
X0023560Y0077475D01*
X0028580Y0078205D02*
X0028580Y0083087D01*
X0030706Y0083087D01*
X0030706Y0077614D01*
X0029171Y0077614D01*
X0028580Y0078205D01*
X0028590Y0078195D02*
X0030706Y0078195D01*
X0030706Y0078232D02*
X0028580Y0078232D01*
X0028580Y0078270D02*
X0030706Y0078270D01*
X0030706Y0078308D02*
X0028580Y0078308D01*
X0028580Y0078346D02*
X0030706Y0078346D01*
X0030706Y0078384D02*
X0028580Y0078384D01*
X0028580Y0078422D02*
X0030706Y0078422D01*
X0030706Y0078460D02*
X0028580Y0078460D01*
X0028580Y0078498D02*
X0030706Y0078498D01*
X0030706Y0078536D02*
X0028580Y0078536D01*
X0028580Y0078573D02*
X0030706Y0078573D01*
X0030706Y0078611D02*
X0028580Y0078611D01*
X0028580Y0078649D02*
X0030706Y0078649D01*
X0030706Y0078687D02*
X0028580Y0078687D01*
X0028580Y0078725D02*
X0030706Y0078725D01*
X0030706Y0078763D02*
X0028580Y0078763D01*
X0028580Y0078801D02*
X0030706Y0078801D01*
X0030706Y0078839D02*
X0028580Y0078839D01*
X0028580Y0078876D02*
X0030706Y0078876D01*
X0030706Y0078914D02*
X0028580Y0078914D01*
X0028580Y0078952D02*
X0030706Y0078952D01*
X0030706Y0078990D02*
X0028580Y0078990D01*
X0028580Y0079028D02*
X0030706Y0079028D01*
X0030706Y0079066D02*
X0028580Y0079066D01*
X0028580Y0079104D02*
X0030706Y0079104D01*
X0030706Y0079142D02*
X0028580Y0079142D01*
X0028580Y0079179D02*
X0030706Y0079179D01*
X0030706Y0079217D02*
X0028580Y0079217D01*
X0028580Y0079255D02*
X0030706Y0079255D01*
X0030706Y0079293D02*
X0028580Y0079293D01*
X0028580Y0079331D02*
X0030706Y0079331D01*
X0030706Y0079369D02*
X0028580Y0079369D01*
X0028580Y0079407D02*
X0030706Y0079407D01*
X0030706Y0079445D02*
X0028580Y0079445D01*
X0028580Y0079483D02*
X0030706Y0079483D01*
X0030706Y0079520D02*
X0028580Y0079520D01*
X0028580Y0079558D02*
X0030706Y0079558D01*
X0030706Y0079596D02*
X0028580Y0079596D01*
X0028580Y0079634D02*
X0030706Y0079634D01*
X0030706Y0079672D02*
X0028580Y0079672D01*
X0028580Y0079710D02*
X0030706Y0079710D01*
X0030706Y0079748D02*
X0028580Y0079748D01*
X0028580Y0079786D02*
X0030706Y0079786D01*
X0030706Y0079823D02*
X0028580Y0079823D01*
X0028580Y0079861D02*
X0030706Y0079861D01*
X0030706Y0079899D02*
X0028580Y0079899D01*
X0028580Y0079937D02*
X0030706Y0079937D01*
X0030706Y0079975D02*
X0028580Y0079975D01*
X0028580Y0080013D02*
X0030706Y0080013D01*
X0030706Y0080051D02*
X0028580Y0080051D01*
X0028580Y0080089D02*
X0030706Y0080089D01*
X0030706Y0080127D02*
X0028580Y0080127D01*
X0028580Y0080164D02*
X0030706Y0080164D01*
X0030706Y0080202D02*
X0028580Y0080202D01*
X0028580Y0080240D02*
X0030706Y0080240D01*
X0030706Y0080278D02*
X0028580Y0080278D01*
X0028580Y0080316D02*
X0030706Y0080316D01*
X0030706Y0080354D02*
X0028580Y0080354D01*
X0028580Y0080392D02*
X0030706Y0080392D01*
X0030706Y0080430D02*
X0028580Y0080430D01*
X0028580Y0080467D02*
X0030706Y0080467D01*
X0030706Y0080505D02*
X0028580Y0080505D01*
X0028580Y0080543D02*
X0030706Y0080543D01*
X0030706Y0080581D02*
X0028580Y0080581D01*
X0028580Y0080619D02*
X0030706Y0080619D01*
X0030706Y0080657D02*
X0028580Y0080657D01*
X0028580Y0080695D02*
X0030706Y0080695D01*
X0030706Y0080733D02*
X0028580Y0080733D01*
X0028580Y0080771D02*
X0030706Y0080771D01*
X0030706Y0080808D02*
X0028580Y0080808D01*
X0028580Y0080846D02*
X0030706Y0080846D01*
X0030706Y0080884D02*
X0028580Y0080884D01*
X0028580Y0080922D02*
X0030706Y0080922D01*
X0030706Y0080960D02*
X0028580Y0080960D01*
X0028580Y0080998D02*
X0030706Y0080998D01*
X0030706Y0081036D02*
X0028580Y0081036D01*
X0028580Y0081074D02*
X0030706Y0081074D01*
X0030706Y0081111D02*
X0028580Y0081111D01*
X0028580Y0081149D02*
X0030706Y0081149D01*
X0030706Y0081187D02*
X0028580Y0081187D01*
X0028580Y0081225D02*
X0030706Y0081225D01*
X0030706Y0081263D02*
X0028580Y0081263D01*
X0028580Y0081301D02*
X0030706Y0081301D01*
X0030706Y0081339D02*
X0028580Y0081339D01*
X0028580Y0081377D02*
X0030706Y0081377D01*
X0030706Y0081414D02*
X0028580Y0081414D01*
X0028580Y0081452D02*
X0030706Y0081452D01*
X0030706Y0081490D02*
X0028580Y0081490D01*
X0028580Y0081528D02*
X0030706Y0081528D01*
X0030706Y0081566D02*
X0028580Y0081566D01*
X0028580Y0081604D02*
X0030706Y0081604D01*
X0030706Y0081642D02*
X0028580Y0081642D01*
X0028580Y0081680D02*
X0030706Y0081680D01*
X0030706Y0081718D02*
X0028580Y0081718D01*
X0028580Y0081755D02*
X0030706Y0081755D01*
X0030706Y0081793D02*
X0028580Y0081793D01*
X0028580Y0081831D02*
X0030706Y0081831D01*
X0030706Y0081869D02*
X0028580Y0081869D01*
X0028580Y0081907D02*
X0030706Y0081907D01*
X0030706Y0081945D02*
X0028580Y0081945D01*
X0028580Y0081983D02*
X0030706Y0081983D01*
X0030706Y0082021D02*
X0028580Y0082021D01*
X0028580Y0082058D02*
X0030706Y0082058D01*
X0030706Y0082096D02*
X0028580Y0082096D01*
X0028580Y0082134D02*
X0030706Y0082134D01*
X0030706Y0082172D02*
X0028580Y0082172D01*
X0028580Y0082210D02*
X0030706Y0082210D01*
X0030706Y0082248D02*
X0028580Y0082248D01*
X0028580Y0082286D02*
X0030706Y0082286D01*
X0030706Y0082324D02*
X0028580Y0082324D01*
X0028580Y0082362D02*
X0030706Y0082362D01*
X0030706Y0082399D02*
X0028580Y0082399D01*
X0028580Y0082437D02*
X0030706Y0082437D01*
X0030706Y0082475D02*
X0028580Y0082475D01*
X0028580Y0082513D02*
X0030706Y0082513D01*
X0030706Y0082551D02*
X0028580Y0082551D01*
X0028580Y0082589D02*
X0030706Y0082589D01*
X0030706Y0082627D02*
X0028580Y0082627D01*
X0028580Y0082665D02*
X0030706Y0082665D01*
X0030706Y0082702D02*
X0028580Y0082702D01*
X0028580Y0082740D02*
X0030706Y0082740D01*
X0030706Y0082778D02*
X0028580Y0082778D01*
X0028580Y0082816D02*
X0030706Y0082816D01*
X0030706Y0082854D02*
X0028580Y0082854D01*
X0028580Y0082892D02*
X0030706Y0082892D01*
X0030706Y0082930D02*
X0028580Y0082930D01*
X0028580Y0082968D02*
X0030706Y0082968D01*
X0030706Y0083006D02*
X0028580Y0083006D01*
X0028580Y0083043D02*
X0030706Y0083043D01*
X0030706Y0083081D02*
X0028580Y0083081D01*
X0028628Y0078157D02*
X0030706Y0078157D01*
X0030706Y0078119D02*
X0028666Y0078119D01*
X0028704Y0078081D02*
X0030706Y0078081D01*
X0030706Y0078043D02*
X0028742Y0078043D01*
X0028780Y0078005D02*
X0030706Y0078005D01*
X0030706Y0077967D02*
X0028817Y0077967D01*
X0028855Y0077929D02*
X0030706Y0077929D01*
X0030706Y0077892D02*
X0028893Y0077892D01*
X0028931Y0077854D02*
X0030706Y0077854D01*
X0030706Y0077816D02*
X0028969Y0077816D01*
X0029007Y0077778D02*
X0030706Y0077778D01*
X0030706Y0077740D02*
X0029045Y0077740D01*
X0029083Y0077702D02*
X0030706Y0077702D01*
X0030706Y0077664D02*
X0029121Y0077664D01*
X0029158Y0077626D02*
X0030706Y0077626D01*
X0061651Y0077626D02*
X0063199Y0077626D01*
X0063186Y0077614D02*
X0063777Y0078205D01*
X0063777Y0083087D01*
X0061651Y0083087D01*
X0061651Y0077614D01*
X0063186Y0077614D01*
X0063236Y0077664D02*
X0061651Y0077664D01*
X0061651Y0077702D02*
X0063274Y0077702D01*
X0063312Y0077740D02*
X0061651Y0077740D01*
X0061651Y0077778D02*
X0063350Y0077778D01*
X0063388Y0077816D02*
X0061651Y0077816D01*
X0061651Y0077854D02*
X0063426Y0077854D01*
X0063464Y0077892D02*
X0061651Y0077892D01*
X0061651Y0077929D02*
X0063502Y0077929D01*
X0063539Y0077967D02*
X0061651Y0077967D01*
X0061651Y0078005D02*
X0063577Y0078005D01*
X0063615Y0078043D02*
X0061651Y0078043D01*
X0061651Y0078081D02*
X0063653Y0078081D01*
X0063691Y0078119D02*
X0061651Y0078119D01*
X0061651Y0078157D02*
X0063729Y0078157D01*
X0063767Y0078195D02*
X0061651Y0078195D01*
X0061651Y0078232D02*
X0063777Y0078232D01*
X0063777Y0078270D02*
X0061651Y0078270D01*
X0061651Y0078308D02*
X0063777Y0078308D01*
X0063777Y0078346D02*
X0061651Y0078346D01*
X0061651Y0078384D02*
X0063777Y0078384D01*
X0063777Y0078422D02*
X0061651Y0078422D01*
X0061651Y0078460D02*
X0063777Y0078460D01*
X0063777Y0078498D02*
X0061651Y0078498D01*
X0061651Y0078536D02*
X0063777Y0078536D01*
X0063777Y0078573D02*
X0061651Y0078573D01*
X0061651Y0078611D02*
X0063777Y0078611D01*
X0063777Y0078649D02*
X0061651Y0078649D01*
X0061651Y0078687D02*
X0063777Y0078687D01*
X0063777Y0078725D02*
X0061651Y0078725D01*
X0061651Y0078763D02*
X0063777Y0078763D01*
X0063777Y0078801D02*
X0061651Y0078801D01*
X0061651Y0078839D02*
X0063777Y0078839D01*
X0063777Y0078876D02*
X0061651Y0078876D01*
X0061651Y0078914D02*
X0063777Y0078914D01*
X0063777Y0078952D02*
X0061651Y0078952D01*
X0061651Y0078990D02*
X0063777Y0078990D01*
X0063777Y0079028D02*
X0061651Y0079028D01*
X0061651Y0079066D02*
X0063777Y0079066D01*
X0063777Y0079104D02*
X0061651Y0079104D01*
X0061651Y0079142D02*
X0063777Y0079142D01*
X0063777Y0079179D02*
X0061651Y0079179D01*
X0061651Y0079217D02*
X0063777Y0079217D01*
X0063777Y0079255D02*
X0061651Y0079255D01*
X0061651Y0079293D02*
X0063777Y0079293D01*
X0063777Y0079331D02*
X0061651Y0079331D01*
X0061651Y0079369D02*
X0063777Y0079369D01*
X0063777Y0079407D02*
X0061651Y0079407D01*
X0061651Y0079445D02*
X0063777Y0079445D01*
X0063777Y0079483D02*
X0061651Y0079483D01*
X0061651Y0079520D02*
X0063777Y0079520D01*
X0063777Y0079558D02*
X0061651Y0079558D01*
X0061651Y0079596D02*
X0063777Y0079596D01*
X0063777Y0079634D02*
X0061651Y0079634D01*
X0061651Y0079672D02*
X0063777Y0079672D01*
X0063777Y0079710D02*
X0061651Y0079710D01*
X0061651Y0079748D02*
X0063777Y0079748D01*
X0063777Y0079786D02*
X0061651Y0079786D01*
X0061651Y0079823D02*
X0063777Y0079823D01*
X0063777Y0079861D02*
X0061651Y0079861D01*
X0061651Y0079899D02*
X0063777Y0079899D01*
X0063777Y0079937D02*
X0061651Y0079937D01*
X0061651Y0079975D02*
X0063777Y0079975D01*
X0063777Y0080013D02*
X0061651Y0080013D01*
X0061651Y0080051D02*
X0063777Y0080051D01*
X0063777Y0080089D02*
X0061651Y0080089D01*
X0061651Y0080127D02*
X0063777Y0080127D01*
X0063777Y0080164D02*
X0061651Y0080164D01*
X0061651Y0080202D02*
X0063777Y0080202D01*
X0063777Y0080240D02*
X0061651Y0080240D01*
X0061651Y0080278D02*
X0063777Y0080278D01*
X0063777Y0080316D02*
X0061651Y0080316D01*
X0061651Y0080354D02*
X0063777Y0080354D01*
X0063777Y0080392D02*
X0061651Y0080392D01*
X0061651Y0080430D02*
X0063777Y0080430D01*
X0063777Y0080467D02*
X0061651Y0080467D01*
X0061651Y0080505D02*
X0063777Y0080505D01*
X0063777Y0080543D02*
X0061651Y0080543D01*
X0061651Y0080581D02*
X0063777Y0080581D01*
X0063777Y0080619D02*
X0061651Y0080619D01*
X0061651Y0080657D02*
X0063777Y0080657D01*
X0063777Y0080695D02*
X0061651Y0080695D01*
X0061651Y0080733D02*
X0063777Y0080733D01*
X0063777Y0080771D02*
X0061651Y0080771D01*
X0061651Y0080808D02*
X0063777Y0080808D01*
X0063777Y0080846D02*
X0061651Y0080846D01*
X0061651Y0080884D02*
X0063777Y0080884D01*
X0063777Y0080922D02*
X0061651Y0080922D01*
X0061651Y0080960D02*
X0063777Y0080960D01*
X0063777Y0080998D02*
X0061651Y0080998D01*
X0061651Y0081036D02*
X0063777Y0081036D01*
X0063777Y0081074D02*
X0061651Y0081074D01*
X0061651Y0081111D02*
X0063777Y0081111D01*
X0063777Y0081149D02*
X0061651Y0081149D01*
X0061651Y0081187D02*
X0063777Y0081187D01*
X0063777Y0081225D02*
X0061651Y0081225D01*
X0061651Y0081263D02*
X0063777Y0081263D01*
X0063777Y0081301D02*
X0061651Y0081301D01*
X0061651Y0081339D02*
X0063777Y0081339D01*
X0063777Y0081377D02*
X0061651Y0081377D01*
X0061651Y0081414D02*
X0063777Y0081414D01*
X0063777Y0081452D02*
X0061651Y0081452D01*
X0061651Y0081490D02*
X0063777Y0081490D01*
X0063777Y0081528D02*
X0061651Y0081528D01*
X0061651Y0081566D02*
X0063777Y0081566D01*
X0063777Y0081604D02*
X0061651Y0081604D01*
X0061651Y0081642D02*
X0063777Y0081642D01*
X0063777Y0081680D02*
X0061651Y0081680D01*
X0061651Y0081718D02*
X0063777Y0081718D01*
X0063777Y0081755D02*
X0061651Y0081755D01*
X0061651Y0081793D02*
X0063777Y0081793D01*
X0063777Y0081831D02*
X0061651Y0081831D01*
X0061651Y0081869D02*
X0063777Y0081869D01*
X0063777Y0081907D02*
X0061651Y0081907D01*
X0061651Y0081945D02*
X0063777Y0081945D01*
X0063777Y0081983D02*
X0061651Y0081983D01*
X0061651Y0082021D02*
X0063777Y0082021D01*
X0063777Y0082058D02*
X0061651Y0082058D01*
X0061651Y0082096D02*
X0063777Y0082096D01*
X0063777Y0082134D02*
X0061651Y0082134D01*
X0061651Y0082172D02*
X0063777Y0082172D01*
X0063777Y0082210D02*
X0061651Y0082210D01*
X0061651Y0082248D02*
X0063777Y0082248D01*
X0063777Y0082286D02*
X0061651Y0082286D01*
X0061651Y0082324D02*
X0063777Y0082324D01*
X0063777Y0082362D02*
X0061651Y0082362D01*
X0061651Y0082399D02*
X0063777Y0082399D01*
X0063777Y0082437D02*
X0061651Y0082437D01*
X0061651Y0082475D02*
X0063777Y0082475D01*
X0063777Y0082513D02*
X0061651Y0082513D01*
X0061651Y0082551D02*
X0063777Y0082551D01*
X0063777Y0082589D02*
X0061651Y0082589D01*
X0061651Y0082627D02*
X0063777Y0082627D01*
X0063777Y0082665D02*
X0061651Y0082665D01*
X0061651Y0082702D02*
X0063777Y0082702D01*
X0063777Y0082740D02*
X0061651Y0082740D01*
X0061651Y0082778D02*
X0063777Y0082778D01*
X0063777Y0082816D02*
X0061651Y0082816D01*
X0061651Y0082854D02*
X0063777Y0082854D01*
X0063777Y0082892D02*
X0061651Y0082892D01*
X0061651Y0082930D02*
X0063777Y0082930D01*
X0063777Y0082968D02*
X0061651Y0082968D01*
X0061651Y0083006D02*
X0063777Y0083006D01*
X0063777Y0083043D02*
X0061651Y0083043D01*
X0061651Y0083081D02*
X0063777Y0083081D01*
X0063915Y0077476D02*
X0063324Y0076886D01*
X0063324Y0075350D01*
X0068797Y0075350D01*
X0068797Y0077476D01*
X0063915Y0077476D01*
X0063913Y0077475D02*
X0068797Y0077475D01*
X0068797Y0077437D02*
X0063875Y0077437D01*
X0063837Y0077399D02*
X0068797Y0077399D01*
X0068797Y0077361D02*
X0063799Y0077361D01*
X0063762Y0077323D02*
X0068797Y0077323D01*
X0068797Y0077285D02*
X0063724Y0077285D01*
X0063686Y0077248D02*
X0068797Y0077248D01*
X0068797Y0077210D02*
X0063648Y0077210D01*
X0063610Y0077172D02*
X0068797Y0077172D01*
X0068797Y0077134D02*
X0063572Y0077134D01*
X0063534Y0077096D02*
X0068797Y0077096D01*
X0068797Y0077058D02*
X0063496Y0077058D01*
X0063459Y0077020D02*
X0068797Y0077020D01*
X0068797Y0076982D02*
X0063421Y0076982D01*
X0063383Y0076944D02*
X0068797Y0076944D01*
X0068797Y0076907D02*
X0063345Y0076907D01*
X0063324Y0076869D02*
X0068797Y0076869D01*
X0068797Y0076831D02*
X0063324Y0076831D01*
X0063324Y0076793D02*
X0068797Y0076793D01*
X0068797Y0076755D02*
X0063324Y0076755D01*
X0063324Y0076717D02*
X0068797Y0076717D01*
X0068797Y0076679D02*
X0063324Y0076679D01*
X0063324Y0076641D02*
X0068797Y0076641D01*
X0068797Y0076604D02*
X0063324Y0076604D01*
X0063324Y0076566D02*
X0068797Y0076566D01*
X0068797Y0076528D02*
X0063324Y0076528D01*
X0063324Y0076490D02*
X0068797Y0076490D01*
X0068797Y0076452D02*
X0063324Y0076452D01*
X0063324Y0076414D02*
X0068797Y0076414D01*
X0068797Y0076376D02*
X0063324Y0076376D01*
X0063324Y0076338D02*
X0068797Y0076338D01*
X0068797Y0076301D02*
X0063324Y0076301D01*
X0063324Y0076263D02*
X0068797Y0076263D01*
X0068797Y0076225D02*
X0063324Y0076225D01*
X0063324Y0076187D02*
X0068797Y0076187D01*
X0068797Y0076149D02*
X0063324Y0076149D01*
X0063324Y0076111D02*
X0068797Y0076111D01*
X0068797Y0076073D02*
X0063324Y0076073D01*
X0063324Y0076035D02*
X0068797Y0076035D01*
X0068797Y0075997D02*
X0063324Y0075997D01*
X0063324Y0075960D02*
X0068797Y0075960D01*
X0068797Y0075922D02*
X0063324Y0075922D01*
X0063324Y0075884D02*
X0068797Y0075884D01*
X0068797Y0075846D02*
X0063324Y0075846D01*
X0063324Y0075808D02*
X0068797Y0075808D01*
X0068797Y0075770D02*
X0063324Y0075770D01*
X0063324Y0075732D02*
X0068797Y0075732D01*
X0068797Y0075694D02*
X0063324Y0075694D01*
X0063324Y0075657D02*
X0068797Y0075657D01*
X0068797Y0075619D02*
X0063324Y0075619D01*
X0063324Y0075581D02*
X0068797Y0075581D01*
X0068797Y0075543D02*
X0063324Y0075543D01*
X0063324Y0075505D02*
X0068797Y0075505D01*
X0068797Y0075467D02*
X0063324Y0075467D01*
X0063324Y0075429D02*
X0068797Y0075429D01*
X0068797Y0075391D02*
X0063324Y0075391D01*
X0063324Y0075353D02*
X0068797Y0075353D01*
X0068797Y0041650D02*
X0063324Y0041650D01*
X0063324Y0040114D01*
X0063915Y0039524D01*
X0068797Y0039524D01*
X0068797Y0041650D01*
X0068797Y0041639D02*
X0063324Y0041639D01*
X0063324Y0041601D02*
X0068797Y0041601D01*
X0068797Y0041563D02*
X0063324Y0041563D01*
X0063324Y0041525D02*
X0068797Y0041525D01*
X0068797Y0041488D02*
X0063324Y0041488D01*
X0063324Y0041450D02*
X0068797Y0041450D01*
X0068797Y0041412D02*
X0063324Y0041412D01*
X0063324Y0041374D02*
X0068797Y0041374D01*
X0068797Y0041336D02*
X0063324Y0041336D01*
X0063324Y0041298D02*
X0068797Y0041298D01*
X0068797Y0041260D02*
X0063324Y0041260D01*
X0063324Y0041222D02*
X0068797Y0041222D01*
X0068797Y0041184D02*
X0063324Y0041184D01*
X0063324Y0041147D02*
X0068797Y0041147D01*
X0068797Y0041109D02*
X0063324Y0041109D01*
X0063324Y0041071D02*
X0068797Y0041071D01*
X0068797Y0041033D02*
X0063324Y0041033D01*
X0063324Y0040995D02*
X0068797Y0040995D01*
X0068797Y0040957D02*
X0063324Y0040957D01*
X0063324Y0040919D02*
X0068797Y0040919D01*
X0068797Y0040881D02*
X0063324Y0040881D01*
X0063324Y0040844D02*
X0068797Y0040844D01*
X0068797Y0040806D02*
X0063324Y0040806D01*
X0063324Y0040768D02*
X0068797Y0040768D01*
X0068797Y0040730D02*
X0063324Y0040730D01*
X0063324Y0040692D02*
X0068797Y0040692D01*
X0068797Y0040654D02*
X0063324Y0040654D01*
X0063324Y0040616D02*
X0068797Y0040616D01*
X0068797Y0040578D02*
X0063324Y0040578D01*
X0063324Y0040540D02*
X0068797Y0040540D01*
X0068797Y0040503D02*
X0063324Y0040503D01*
X0063324Y0040465D02*
X0068797Y0040465D01*
X0068797Y0040427D02*
X0063324Y0040427D01*
X0063324Y0040389D02*
X0068797Y0040389D01*
X0068797Y0040351D02*
X0063324Y0040351D01*
X0063324Y0040313D02*
X0068797Y0040313D01*
X0068797Y0040275D02*
X0063324Y0040275D01*
X0063324Y0040237D02*
X0068797Y0040237D01*
X0068797Y0040200D02*
X0063324Y0040200D01*
X0063324Y0040162D02*
X0068797Y0040162D01*
X0068797Y0040124D02*
X0063324Y0040124D01*
X0063352Y0040086D02*
X0068797Y0040086D01*
X0068797Y0040048D02*
X0063390Y0040048D01*
X0063428Y0040010D02*
X0068797Y0040010D01*
X0068797Y0039972D02*
X0063466Y0039972D01*
X0063504Y0039934D02*
X0068797Y0039934D01*
X0068797Y0039896D02*
X0063542Y0039896D01*
X0063580Y0039859D02*
X0068797Y0039859D01*
X0068797Y0039821D02*
X0063618Y0039821D01*
X0063655Y0039783D02*
X0068797Y0039783D01*
X0068797Y0039745D02*
X0063693Y0039745D01*
X0063731Y0039707D02*
X0068797Y0039707D01*
X0068797Y0039669D02*
X0063769Y0039669D01*
X0063807Y0039631D02*
X0068797Y0039631D01*
X0068797Y0039593D02*
X0063845Y0039593D01*
X0063883Y0039556D02*
X0068797Y0039556D01*
X0063777Y0038795D02*
X0063777Y0033913D01*
X0061651Y0033913D01*
X0061651Y0039386D01*
X0063186Y0039386D01*
X0063777Y0038795D01*
X0063774Y0038798D02*
X0061651Y0038798D01*
X0061651Y0038836D02*
X0063736Y0038836D01*
X0063698Y0038874D02*
X0061651Y0038874D01*
X0061651Y0038912D02*
X0063661Y0038912D01*
X0063623Y0038949D02*
X0061651Y0038949D01*
X0061651Y0038987D02*
X0063585Y0038987D01*
X0063547Y0039025D02*
X0061651Y0039025D01*
X0061651Y0039063D02*
X0063509Y0039063D01*
X0063471Y0039101D02*
X0061651Y0039101D01*
X0061651Y0039139D02*
X0063433Y0039139D01*
X0063395Y0039177D02*
X0061651Y0039177D01*
X0061651Y0039215D02*
X0063358Y0039215D01*
X0063320Y0039252D02*
X0061651Y0039252D01*
X0061651Y0039290D02*
X0063282Y0039290D01*
X0063244Y0039328D02*
X0061651Y0039328D01*
X0061651Y0039366D02*
X0063206Y0039366D01*
X0063777Y0038760D02*
X0061651Y0038760D01*
X0061651Y0038722D02*
X0063777Y0038722D01*
X0063777Y0038684D02*
X0061651Y0038684D01*
X0061651Y0038646D02*
X0063777Y0038646D01*
X0063777Y0038609D02*
X0061651Y0038609D01*
X0061651Y0038571D02*
X0063777Y0038571D01*
X0063777Y0038533D02*
X0061651Y0038533D01*
X0061651Y0038495D02*
X0063777Y0038495D01*
X0063777Y0038457D02*
X0061651Y0038457D01*
X0061651Y0038419D02*
X0063777Y0038419D01*
X0063777Y0038381D02*
X0061651Y0038381D01*
X0061651Y0038343D02*
X0063777Y0038343D01*
X0063777Y0038305D02*
X0061651Y0038305D01*
X0061651Y0038268D02*
X0063777Y0038268D01*
X0063777Y0038230D02*
X0061651Y0038230D01*
X0061651Y0038192D02*
X0063777Y0038192D01*
X0063777Y0038154D02*
X0061651Y0038154D01*
X0061651Y0038116D02*
X0063777Y0038116D01*
X0063777Y0038078D02*
X0061651Y0038078D01*
X0061651Y0038040D02*
X0063777Y0038040D01*
X0063777Y0038002D02*
X0061651Y0038002D01*
X0061651Y0037965D02*
X0063777Y0037965D01*
X0063777Y0037927D02*
X0061651Y0037927D01*
X0061651Y0037889D02*
X0063777Y0037889D01*
X0063777Y0037851D02*
X0061651Y0037851D01*
X0061651Y0037813D02*
X0063777Y0037813D01*
X0063777Y0037775D02*
X0061651Y0037775D01*
X0061651Y0037737D02*
X0063777Y0037737D01*
X0063777Y0037699D02*
X0061651Y0037699D01*
X0061651Y0037661D02*
X0063777Y0037661D01*
X0063777Y0037624D02*
X0061651Y0037624D01*
X0061651Y0037586D02*
X0063777Y0037586D01*
X0063777Y0037548D02*
X0061651Y0037548D01*
X0061651Y0037510D02*
X0063777Y0037510D01*
X0063777Y0037472D02*
X0061651Y0037472D01*
X0061651Y0037434D02*
X0063777Y0037434D01*
X0063777Y0037396D02*
X0061651Y0037396D01*
X0061651Y0037358D02*
X0063777Y0037358D01*
X0063777Y0037321D02*
X0061651Y0037321D01*
X0061651Y0037283D02*
X0063777Y0037283D01*
X0063777Y0037245D02*
X0061651Y0037245D01*
X0061651Y0037207D02*
X0063777Y0037207D01*
X0063777Y0037169D02*
X0061651Y0037169D01*
X0061651Y0037131D02*
X0063777Y0037131D01*
X0063777Y0037093D02*
X0061651Y0037093D01*
X0061651Y0037055D02*
X0063777Y0037055D01*
X0063777Y0037017D02*
X0061651Y0037017D01*
X0061651Y0036980D02*
X0063777Y0036980D01*
X0063777Y0036942D02*
X0061651Y0036942D01*
X0061651Y0036904D02*
X0063777Y0036904D01*
X0063777Y0036866D02*
X0061651Y0036866D01*
X0061651Y0036828D02*
X0063777Y0036828D01*
X0063777Y0036790D02*
X0061651Y0036790D01*
X0061651Y0036752D02*
X0063777Y0036752D01*
X0063777Y0036714D02*
X0061651Y0036714D01*
X0061651Y0036677D02*
X0063777Y0036677D01*
X0063777Y0036639D02*
X0061651Y0036639D01*
X0061651Y0036601D02*
X0063777Y0036601D01*
X0063777Y0036563D02*
X0061651Y0036563D01*
X0061651Y0036525D02*
X0063777Y0036525D01*
X0063777Y0036487D02*
X0061651Y0036487D01*
X0061651Y0036449D02*
X0063777Y0036449D01*
X0063777Y0036411D02*
X0061651Y0036411D01*
X0061651Y0036374D02*
X0063777Y0036374D01*
X0063777Y0036336D02*
X0061651Y0036336D01*
X0061651Y0036298D02*
X0063777Y0036298D01*
X0063777Y0036260D02*
X0061651Y0036260D01*
X0061651Y0036222D02*
X0063777Y0036222D01*
X0063777Y0036184D02*
X0061651Y0036184D01*
X0061651Y0036146D02*
X0063777Y0036146D01*
X0063777Y0036108D02*
X0061651Y0036108D01*
X0061651Y0036070D02*
X0063777Y0036070D01*
X0063777Y0036033D02*
X0061651Y0036033D01*
X0061651Y0035995D02*
X0063777Y0035995D01*
X0063777Y0035957D02*
X0061651Y0035957D01*
X0061651Y0035919D02*
X0063777Y0035919D01*
X0063777Y0035881D02*
X0061651Y0035881D01*
X0061651Y0035843D02*
X0063777Y0035843D01*
X0063777Y0035805D02*
X0061651Y0035805D01*
X0061651Y0035767D02*
X0063777Y0035767D01*
X0063777Y0035730D02*
X0061651Y0035730D01*
X0061651Y0035692D02*
X0063777Y0035692D01*
X0063777Y0035654D02*
X0061651Y0035654D01*
X0061651Y0035616D02*
X0063777Y0035616D01*
X0063777Y0035578D02*
X0061651Y0035578D01*
X0061651Y0035540D02*
X0063777Y0035540D01*
X0063777Y0035502D02*
X0061651Y0035502D01*
X0061651Y0035464D02*
X0063777Y0035464D01*
X0063777Y0035426D02*
X0061651Y0035426D01*
X0061651Y0035389D02*
X0063777Y0035389D01*
X0063777Y0035351D02*
X0061651Y0035351D01*
X0061651Y0035313D02*
X0063777Y0035313D01*
X0063777Y0035275D02*
X0061651Y0035275D01*
X0061651Y0035237D02*
X0063777Y0035237D01*
X0063777Y0035199D02*
X0061651Y0035199D01*
X0061651Y0035161D02*
X0063777Y0035161D01*
X0063777Y0035123D02*
X0061651Y0035123D01*
X0061651Y0035086D02*
X0063777Y0035086D01*
X0063777Y0035048D02*
X0061651Y0035048D01*
X0061651Y0035010D02*
X0063777Y0035010D01*
X0063777Y0034972D02*
X0061651Y0034972D01*
X0061651Y0034934D02*
X0063777Y0034934D01*
X0063777Y0034896D02*
X0061651Y0034896D01*
X0061651Y0034858D02*
X0063777Y0034858D01*
X0063777Y0034820D02*
X0061651Y0034820D01*
X0061651Y0034782D02*
X0063777Y0034782D01*
X0063777Y0034745D02*
X0061651Y0034745D01*
X0061651Y0034707D02*
X0063777Y0034707D01*
X0063777Y0034669D02*
X0061651Y0034669D01*
X0061651Y0034631D02*
X0063777Y0034631D01*
X0063777Y0034593D02*
X0061651Y0034593D01*
X0061651Y0034555D02*
X0063777Y0034555D01*
X0063777Y0034517D02*
X0061651Y0034517D01*
X0061651Y0034479D02*
X0063777Y0034479D01*
X0063777Y0034442D02*
X0061651Y0034442D01*
X0061651Y0034404D02*
X0063777Y0034404D01*
X0063777Y0034366D02*
X0061651Y0034366D01*
X0061651Y0034328D02*
X0063777Y0034328D01*
X0063777Y0034290D02*
X0061651Y0034290D01*
X0061651Y0034252D02*
X0063777Y0034252D01*
X0063777Y0034214D02*
X0061651Y0034214D01*
X0061651Y0034176D02*
X0063777Y0034176D01*
X0063777Y0034139D02*
X0061651Y0034139D01*
X0061651Y0034101D02*
X0063777Y0034101D01*
X0063777Y0034063D02*
X0061651Y0034063D01*
X0061651Y0034025D02*
X0063777Y0034025D01*
X0063777Y0033987D02*
X0061651Y0033987D01*
X0061651Y0033949D02*
X0063777Y0033949D01*
X0030706Y0033949D02*
X0028580Y0033949D01*
X0028580Y0033913D02*
X0030706Y0033913D01*
X0030706Y0039386D01*
X0029171Y0039386D01*
X0028580Y0038795D01*
X0028580Y0033913D01*
X0028580Y0033987D02*
X0030706Y0033987D01*
X0030706Y0034025D02*
X0028580Y0034025D01*
X0028580Y0034063D02*
X0030706Y0034063D01*
X0030706Y0034101D02*
X0028580Y0034101D01*
X0028580Y0034139D02*
X0030706Y0034139D01*
X0030706Y0034176D02*
X0028580Y0034176D01*
X0028580Y0034214D02*
X0030706Y0034214D01*
X0030706Y0034252D02*
X0028580Y0034252D01*
X0028580Y0034290D02*
X0030706Y0034290D01*
X0030706Y0034328D02*
X0028580Y0034328D01*
X0028580Y0034366D02*
X0030706Y0034366D01*
X0030706Y0034404D02*
X0028580Y0034404D01*
X0028580Y0034442D02*
X0030706Y0034442D01*
X0030706Y0034479D02*
X0028580Y0034479D01*
X0028580Y0034517D02*
X0030706Y0034517D01*
X0030706Y0034555D02*
X0028580Y0034555D01*
X0028580Y0034593D02*
X0030706Y0034593D01*
X0030706Y0034631D02*
X0028580Y0034631D01*
X0028580Y0034669D02*
X0030706Y0034669D01*
X0030706Y0034707D02*
X0028580Y0034707D01*
X0028580Y0034745D02*
X0030706Y0034745D01*
X0030706Y0034782D02*
X0028580Y0034782D01*
X0028580Y0034820D02*
X0030706Y0034820D01*
X0030706Y0034858D02*
X0028580Y0034858D01*
X0028580Y0034896D02*
X0030706Y0034896D01*
X0030706Y0034934D02*
X0028580Y0034934D01*
X0028580Y0034972D02*
X0030706Y0034972D01*
X0030706Y0035010D02*
X0028580Y0035010D01*
X0028580Y0035048D02*
X0030706Y0035048D01*
X0030706Y0035086D02*
X0028580Y0035086D01*
X0028580Y0035123D02*
X0030706Y0035123D01*
X0030706Y0035161D02*
X0028580Y0035161D01*
X0028580Y0035199D02*
X0030706Y0035199D01*
X0030706Y0035237D02*
X0028580Y0035237D01*
X0028580Y0035275D02*
X0030706Y0035275D01*
X0030706Y0035313D02*
X0028580Y0035313D01*
X0028580Y0035351D02*
X0030706Y0035351D01*
X0030706Y0035389D02*
X0028580Y0035389D01*
X0028580Y0035426D02*
X0030706Y0035426D01*
X0030706Y0035464D02*
X0028580Y0035464D01*
X0028580Y0035502D02*
X0030706Y0035502D01*
X0030706Y0035540D02*
X0028580Y0035540D01*
X0028580Y0035578D02*
X0030706Y0035578D01*
X0030706Y0035616D02*
X0028580Y0035616D01*
X0028580Y0035654D02*
X0030706Y0035654D01*
X0030706Y0035692D02*
X0028580Y0035692D01*
X0028580Y0035730D02*
X0030706Y0035730D01*
X0030706Y0035767D02*
X0028580Y0035767D01*
X0028580Y0035805D02*
X0030706Y0035805D01*
X0030706Y0035843D02*
X0028580Y0035843D01*
X0028580Y0035881D02*
X0030706Y0035881D01*
X0030706Y0035919D02*
X0028580Y0035919D01*
X0028580Y0035957D02*
X0030706Y0035957D01*
X0030706Y0035995D02*
X0028580Y0035995D01*
X0028580Y0036033D02*
X0030706Y0036033D01*
X0030706Y0036070D02*
X0028580Y0036070D01*
X0028580Y0036108D02*
X0030706Y0036108D01*
X0030706Y0036146D02*
X0028580Y0036146D01*
X0028580Y0036184D02*
X0030706Y0036184D01*
X0030706Y0036222D02*
X0028580Y0036222D01*
X0028580Y0036260D02*
X0030706Y0036260D01*
X0030706Y0036298D02*
X0028580Y0036298D01*
X0028580Y0036336D02*
X0030706Y0036336D01*
X0030706Y0036374D02*
X0028580Y0036374D01*
X0028580Y0036411D02*
X0030706Y0036411D01*
X0030706Y0036449D02*
X0028580Y0036449D01*
X0028580Y0036487D02*
X0030706Y0036487D01*
X0030706Y0036525D02*
X0028580Y0036525D01*
X0028580Y0036563D02*
X0030706Y0036563D01*
X0030706Y0036601D02*
X0028580Y0036601D01*
X0028580Y0036639D02*
X0030706Y0036639D01*
X0030706Y0036677D02*
X0028580Y0036677D01*
X0028580Y0036714D02*
X0030706Y0036714D01*
X0030706Y0036752D02*
X0028580Y0036752D01*
X0028580Y0036790D02*
X0030706Y0036790D01*
X0030706Y0036828D02*
X0028580Y0036828D01*
X0028580Y0036866D02*
X0030706Y0036866D01*
X0030706Y0036904D02*
X0028580Y0036904D01*
X0028580Y0036942D02*
X0030706Y0036942D01*
X0030706Y0036980D02*
X0028580Y0036980D01*
X0028580Y0037017D02*
X0030706Y0037017D01*
X0030706Y0037055D02*
X0028580Y0037055D01*
X0028580Y0037093D02*
X0030706Y0037093D01*
X0030706Y0037131D02*
X0028580Y0037131D01*
X0028580Y0037169D02*
X0030706Y0037169D01*
X0030706Y0037207D02*
X0028580Y0037207D01*
X0028580Y0037245D02*
X0030706Y0037245D01*
X0030706Y0037283D02*
X0028580Y0037283D01*
X0028580Y0037321D02*
X0030706Y0037321D01*
X0030706Y0037358D02*
X0028580Y0037358D01*
X0028580Y0037396D02*
X0030706Y0037396D01*
X0030706Y0037434D02*
X0028580Y0037434D01*
X0028580Y0037472D02*
X0030706Y0037472D01*
X0030706Y0037510D02*
X0028580Y0037510D01*
X0028580Y0037548D02*
X0030706Y0037548D01*
X0030706Y0037586D02*
X0028580Y0037586D01*
X0028580Y0037624D02*
X0030706Y0037624D01*
X0030706Y0037661D02*
X0028580Y0037661D01*
X0028580Y0037699D02*
X0030706Y0037699D01*
X0030706Y0037737D02*
X0028580Y0037737D01*
X0028580Y0037775D02*
X0030706Y0037775D01*
X0030706Y0037813D02*
X0028580Y0037813D01*
X0028580Y0037851D02*
X0030706Y0037851D01*
X0030706Y0037889D02*
X0028580Y0037889D01*
X0028580Y0037927D02*
X0030706Y0037927D01*
X0030706Y0037965D02*
X0028580Y0037965D01*
X0028580Y0038002D02*
X0030706Y0038002D01*
X0030706Y0038040D02*
X0028580Y0038040D01*
X0028580Y0038078D02*
X0030706Y0038078D01*
X0030706Y0038116D02*
X0028580Y0038116D01*
X0028580Y0038154D02*
X0030706Y0038154D01*
X0030706Y0038192D02*
X0028580Y0038192D01*
X0028580Y0038230D02*
X0030706Y0038230D01*
X0030706Y0038268D02*
X0028580Y0038268D01*
X0028580Y0038305D02*
X0030706Y0038305D01*
X0030706Y0038343D02*
X0028580Y0038343D01*
X0028580Y0038381D02*
X0030706Y0038381D01*
X0030706Y0038419D02*
X0028580Y0038419D01*
X0028580Y0038457D02*
X0030706Y0038457D01*
X0030706Y0038495D02*
X0028580Y0038495D01*
X0028580Y0038533D02*
X0030706Y0038533D01*
X0030706Y0038571D02*
X0028580Y0038571D01*
X0028580Y0038609D02*
X0030706Y0038609D01*
X0030706Y0038646D02*
X0028580Y0038646D01*
X0028580Y0038684D02*
X0030706Y0038684D01*
X0030706Y0038722D02*
X0028580Y0038722D01*
X0028580Y0038760D02*
X0030706Y0038760D01*
X0030706Y0038798D02*
X0028583Y0038798D01*
X0028621Y0038836D02*
X0030706Y0038836D01*
X0030706Y0038874D02*
X0028658Y0038874D01*
X0028696Y0038912D02*
X0030706Y0038912D01*
X0030706Y0038949D02*
X0028734Y0038949D01*
X0028772Y0038987D02*
X0030706Y0038987D01*
X0030706Y0039025D02*
X0028810Y0039025D01*
X0028848Y0039063D02*
X0030706Y0039063D01*
X0030706Y0039101D02*
X0028886Y0039101D01*
X0028924Y0039139D02*
X0030706Y0039139D01*
X0030706Y0039177D02*
X0028961Y0039177D01*
X0028999Y0039215D02*
X0030706Y0039215D01*
X0030706Y0039252D02*
X0029037Y0039252D01*
X0029075Y0039290D02*
X0030706Y0039290D01*
X0030706Y0039328D02*
X0029113Y0039328D01*
X0029151Y0039366D02*
X0030706Y0039366D01*
X0029033Y0040114D02*
X0029033Y0041650D01*
X0023560Y0041650D01*
X0023560Y0039524D01*
X0028442Y0039524D01*
X0029033Y0040114D01*
X0029033Y0040124D02*
X0023560Y0040124D01*
X0023560Y0040162D02*
X0029033Y0040162D01*
X0029033Y0040200D02*
X0023560Y0040200D01*
X0023560Y0040237D02*
X0029033Y0040237D01*
X0029033Y0040275D02*
X0023560Y0040275D01*
X0023560Y0040313D02*
X0029033Y0040313D01*
X0029033Y0040351D02*
X0023560Y0040351D01*
X0023560Y0040389D02*
X0029033Y0040389D01*
X0029033Y0040427D02*
X0023560Y0040427D01*
X0023560Y0040465D02*
X0029033Y0040465D01*
X0029033Y0040503D02*
X0023560Y0040503D01*
X0023560Y0040540D02*
X0029033Y0040540D01*
X0029033Y0040578D02*
X0023560Y0040578D01*
X0023560Y0040616D02*
X0029033Y0040616D01*
X0029033Y0040654D02*
X0023560Y0040654D01*
X0023560Y0040692D02*
X0029033Y0040692D01*
X0029033Y0040730D02*
X0023560Y0040730D01*
X0023560Y0040768D02*
X0029033Y0040768D01*
X0029033Y0040806D02*
X0023560Y0040806D01*
X0023560Y0040844D02*
X0029033Y0040844D01*
X0029033Y0040881D02*
X0023560Y0040881D01*
X0023560Y0040919D02*
X0029033Y0040919D01*
X0029033Y0040957D02*
X0023560Y0040957D01*
X0023560Y0040995D02*
X0029033Y0040995D01*
X0029033Y0041033D02*
X0023560Y0041033D01*
X0023560Y0041071D02*
X0029033Y0041071D01*
X0029033Y0041109D02*
X0023560Y0041109D01*
X0023560Y0041147D02*
X0029033Y0041147D01*
X0029033Y0041184D02*
X0023560Y0041184D01*
X0023560Y0041222D02*
X0029033Y0041222D01*
X0029033Y0041260D02*
X0023560Y0041260D01*
X0023560Y0041298D02*
X0029033Y0041298D01*
X0029033Y0041336D02*
X0023560Y0041336D01*
X0023560Y0041374D02*
X0029033Y0041374D01*
X0029033Y0041412D02*
X0023560Y0041412D01*
X0023560Y0041450D02*
X0029033Y0041450D01*
X0029033Y0041488D02*
X0023560Y0041488D01*
X0023560Y0041525D02*
X0029033Y0041525D01*
X0029033Y0041563D02*
X0023560Y0041563D01*
X0023560Y0041601D02*
X0029033Y0041601D01*
X0029033Y0041639D02*
X0023560Y0041639D01*
X0023560Y0040086D02*
X0029005Y0040086D01*
X0028967Y0040048D02*
X0023560Y0040048D01*
X0023560Y0040010D02*
X0028929Y0040010D01*
X0028891Y0039972D02*
X0023560Y0039972D01*
X0023560Y0039934D02*
X0028853Y0039934D01*
X0028815Y0039896D02*
X0023560Y0039896D01*
X0023560Y0039859D02*
X0028777Y0039859D01*
X0028739Y0039821D02*
X0023560Y0039821D01*
X0023560Y0039783D02*
X0028701Y0039783D01*
X0028664Y0039745D02*
X0023560Y0039745D01*
X0023560Y0039707D02*
X0028626Y0039707D01*
X0028588Y0039669D02*
X0023560Y0039669D01*
X0023560Y0039631D02*
X0028550Y0039631D01*
X0028512Y0039593D02*
X0023560Y0039593D01*
X0023560Y0039556D02*
X0028474Y0039556D01*
D24*
X0015971Y0011200D03*
X0027586Y0011200D03*
D25*
X0021778Y0017214D03*
D26*
X0020278Y0027900D03*
X0024078Y0027900D03*
X0035778Y0021400D03*
X0039578Y0021400D03*
X0037678Y0027300D03*
X0041478Y0027300D03*
X0042978Y0031000D03*
X0039178Y0031000D03*
X0067278Y0112000D03*
X0071078Y0112000D03*
X0071078Y0120000D03*
X0067278Y0120000D03*
X0067278Y0124000D03*
X0071078Y0124000D03*
X0024678Y0126800D03*
X0020878Y0126800D03*
D27*
X0057178Y0121550D03*
X0057178Y0115650D03*
X0047778Y0093450D03*
X0047778Y0087550D03*
X0057478Y0087050D03*
X0057478Y0092950D03*
X0067678Y0030650D03*
X0067678Y0024750D03*
D28*
X0052028Y0027500D03*
X0046128Y0027500D03*
X0027228Y0131400D03*
X0021328Y0131400D03*
D29*
X0071278Y0138900D02*
X0073578Y0138400D01*
X0073978Y0138900D01*
X0073578Y0139400D01*
X0071278Y0138900D01*
X0071488Y0138946D02*
X0073942Y0138946D01*
X0073936Y0138847D02*
X0071522Y0138847D01*
X0071941Y0139044D02*
X0073863Y0139044D01*
X0073784Y0139143D02*
X0072395Y0139143D01*
X0072848Y0139241D02*
X0073706Y0139241D01*
X0073627Y0139340D02*
X0073301Y0139340D01*
X0073857Y0138749D02*
X0071975Y0138749D01*
X0072428Y0138650D02*
X0073779Y0138650D01*
X0073700Y0138552D02*
X0072881Y0138552D01*
X0073334Y0138453D02*
X0073621Y0138453D01*
X0074114Y0138158D02*
X0077257Y0138158D01*
X0077194Y0138256D02*
X0074176Y0138256D01*
X0074238Y0138355D02*
X0077130Y0138355D01*
X0077067Y0138453D02*
X0074299Y0138453D01*
X0074361Y0138552D02*
X0077003Y0138552D01*
X0076940Y0138650D02*
X0074422Y0138650D01*
X0074484Y0138749D02*
X0076876Y0138749D01*
X0076813Y0138847D02*
X0074545Y0138847D01*
X0074578Y0138900D02*
X0072578Y0135700D01*
X0075678Y0137700D01*
X0078778Y0135800D01*
X0076778Y0138900D01*
X0078778Y0141900D01*
X0075678Y0140000D01*
X0072678Y0141900D01*
X0074578Y0138900D01*
X0074550Y0138946D02*
X0076809Y0138946D01*
X0076875Y0139044D02*
X0074487Y0139044D01*
X0074425Y0139143D02*
X0076940Y0139143D01*
X0077006Y0139241D02*
X0074362Y0139241D01*
X0074300Y0139340D02*
X0077072Y0139340D01*
X0077137Y0139438D02*
X0074238Y0139438D01*
X0074175Y0139537D02*
X0077203Y0139537D01*
X0077269Y0139635D02*
X0074113Y0139635D01*
X0074050Y0139734D02*
X0077334Y0139734D01*
X0077400Y0139832D02*
X0073988Y0139832D01*
X0073926Y0139931D02*
X0077466Y0139931D01*
X0077531Y0140029D02*
X0075726Y0140029D01*
X0075632Y0140029D02*
X0073863Y0140029D01*
X0073801Y0140128D02*
X0075477Y0140128D01*
X0075321Y0140226D02*
X0073738Y0140226D01*
X0073676Y0140325D02*
X0075166Y0140325D01*
X0075010Y0140423D02*
X0073614Y0140423D01*
X0073551Y0140522D02*
X0074855Y0140522D01*
X0074699Y0140620D02*
X0073489Y0140620D01*
X0073427Y0140719D02*
X0074543Y0140719D01*
X0074388Y0140817D02*
X0073364Y0140817D01*
X0073302Y0140916D02*
X0074232Y0140916D01*
X0074077Y0141014D02*
X0073239Y0141014D01*
X0073177Y0141113D02*
X0073921Y0141113D01*
X0073766Y0141211D02*
X0073115Y0141211D01*
X0073052Y0141310D02*
X0073610Y0141310D01*
X0073455Y0141408D02*
X0072990Y0141408D01*
X0072927Y0141507D02*
X0073299Y0141507D01*
X0073144Y0141605D02*
X0072865Y0141605D01*
X0072803Y0141704D02*
X0072988Y0141704D01*
X0072832Y0141802D02*
X0072740Y0141802D01*
X0075264Y0141310D02*
X0076093Y0141310D01*
X0076073Y0141408D02*
X0075284Y0141408D01*
X0075305Y0141507D02*
X0076052Y0141507D01*
X0076031Y0141605D02*
X0075325Y0141605D01*
X0075346Y0141704D02*
X0076011Y0141704D01*
X0075990Y0141802D02*
X0075366Y0141802D01*
X0075387Y0141901D02*
X0075970Y0141901D01*
X0075949Y0141999D02*
X0075408Y0141999D01*
X0075428Y0142098D02*
X0075929Y0142098D01*
X0075908Y0142196D02*
X0075449Y0142196D01*
X0075469Y0142295D02*
X0075888Y0142295D01*
X0075867Y0142394D02*
X0075490Y0142394D01*
X0075510Y0142492D02*
X0075847Y0142492D01*
X0075826Y0142591D02*
X0075531Y0142591D01*
X0075551Y0142689D02*
X0075806Y0142689D01*
X0075785Y0142788D02*
X0075572Y0142788D01*
X0075592Y0142886D02*
X0075765Y0142886D01*
X0075744Y0142985D02*
X0075613Y0142985D01*
X0075633Y0143083D02*
X0075724Y0143083D01*
X0075703Y0143182D02*
X0075654Y0143182D01*
X0075674Y0143280D02*
X0075683Y0143280D01*
X0075678Y0143300D02*
X0076178Y0140900D01*
X0075678Y0140600D01*
X0075178Y0140900D01*
X0075678Y0143300D01*
X0078459Y0141704D02*
X0078648Y0141704D01*
X0078619Y0141802D02*
X0078713Y0141802D01*
X0078582Y0141605D02*
X0078298Y0141605D01*
X0078137Y0141507D02*
X0078516Y0141507D01*
X0078451Y0141408D02*
X0077976Y0141408D01*
X0077816Y0141310D02*
X0078385Y0141310D01*
X0078319Y0141211D02*
X0077655Y0141211D01*
X0077494Y0141113D02*
X0078254Y0141113D01*
X0078188Y0141014D02*
X0077333Y0141014D01*
X0077173Y0140916D02*
X0078122Y0140916D01*
X0078057Y0140817D02*
X0077012Y0140817D01*
X0076851Y0140719D02*
X0077991Y0140719D01*
X0077925Y0140620D02*
X0076691Y0140620D01*
X0076530Y0140522D02*
X0077860Y0140522D01*
X0077794Y0140423D02*
X0076369Y0140423D01*
X0076208Y0140325D02*
X0077728Y0140325D01*
X0077663Y0140226D02*
X0076048Y0140226D01*
X0075887Y0140128D02*
X0077597Y0140128D01*
X0077778Y0139400D02*
X0077478Y0138900D01*
X0077778Y0138400D01*
X0080078Y0138900D01*
X0077778Y0139400D01*
X0077742Y0139340D02*
X0078056Y0139340D01*
X0077683Y0139241D02*
X0078509Y0139241D01*
X0078962Y0139143D02*
X0077624Y0139143D01*
X0077565Y0139044D02*
X0079415Y0139044D01*
X0079382Y0138749D02*
X0077569Y0138749D01*
X0077510Y0138847D02*
X0079835Y0138847D01*
X0079869Y0138946D02*
X0077506Y0138946D01*
X0077628Y0138650D02*
X0078929Y0138650D01*
X0078476Y0138552D02*
X0077688Y0138552D01*
X0077747Y0138453D02*
X0078023Y0138453D01*
X0077321Y0138059D02*
X0074053Y0138059D01*
X0073991Y0137961D02*
X0077385Y0137961D01*
X0077448Y0137862D02*
X0073930Y0137862D01*
X0073868Y0137763D02*
X0077512Y0137763D01*
X0077575Y0137665D02*
X0075736Y0137665D01*
X0075624Y0137665D02*
X0073807Y0137665D01*
X0073745Y0137566D02*
X0075471Y0137566D01*
X0075319Y0137468D02*
X0073683Y0137468D01*
X0073622Y0137369D02*
X0075166Y0137369D01*
X0075013Y0137271D02*
X0073560Y0137271D01*
X0073499Y0137172D02*
X0074861Y0137172D01*
X0074708Y0137074D02*
X0073437Y0137074D01*
X0073376Y0136975D02*
X0074555Y0136975D01*
X0074403Y0136877D02*
X0073314Y0136877D01*
X0073252Y0136778D02*
X0074250Y0136778D01*
X0074097Y0136680D02*
X0073191Y0136680D01*
X0073129Y0136581D02*
X0073945Y0136581D01*
X0073792Y0136483D02*
X0073068Y0136483D01*
X0073006Y0136384D02*
X0073639Y0136384D01*
X0073486Y0136286D02*
X0072945Y0136286D01*
X0072883Y0136187D02*
X0073334Y0136187D01*
X0073181Y0136089D02*
X0072821Y0136089D01*
X0072760Y0135990D02*
X0073028Y0135990D01*
X0072876Y0135892D02*
X0072698Y0135892D01*
X0072723Y0135793D02*
X0072637Y0135793D01*
X0075265Y0136384D02*
X0076092Y0136384D01*
X0076071Y0136286D02*
X0075286Y0136286D01*
X0075306Y0136187D02*
X0076051Y0136187D01*
X0076030Y0136089D02*
X0075327Y0136089D01*
X0075347Y0135990D02*
X0076010Y0135990D01*
X0075989Y0135892D02*
X0075368Y0135892D01*
X0075388Y0135793D02*
X0075969Y0135793D01*
X0075948Y0135695D02*
X0075409Y0135695D01*
X0075429Y0135596D02*
X0075928Y0135596D01*
X0075907Y0135498D02*
X0075450Y0135498D01*
X0075470Y0135399D02*
X0075887Y0135399D01*
X0075866Y0135301D02*
X0075491Y0135301D01*
X0075511Y0135202D02*
X0075846Y0135202D01*
X0075825Y0135104D02*
X0075532Y0135104D01*
X0075552Y0135005D02*
X0075805Y0135005D01*
X0075784Y0134907D02*
X0075573Y0134907D01*
X0075593Y0134808D02*
X0075763Y0134808D01*
X0075743Y0134710D02*
X0075614Y0134710D01*
X0075634Y0134611D02*
X0075722Y0134611D01*
X0075702Y0134513D02*
X0075655Y0134513D01*
X0075676Y0134414D02*
X0075681Y0134414D01*
X0075678Y0134400D02*
X0076178Y0136800D01*
X0075678Y0137100D01*
X0075178Y0136800D01*
X0075678Y0134400D01*
X0075245Y0136483D02*
X0076112Y0136483D01*
X0076133Y0136581D02*
X0075224Y0136581D01*
X0075203Y0136680D02*
X0076153Y0136680D01*
X0076174Y0136778D02*
X0075183Y0136778D01*
X0075307Y0136877D02*
X0076050Y0136877D01*
X0075886Y0136975D02*
X0075471Y0136975D01*
X0075635Y0137074D02*
X0075722Y0137074D01*
X0076057Y0137468D02*
X0077702Y0137468D01*
X0077639Y0137566D02*
X0075896Y0137566D01*
X0076218Y0137369D02*
X0077766Y0137369D01*
X0077829Y0137271D02*
X0076379Y0137271D01*
X0076539Y0137172D02*
X0077893Y0137172D01*
X0077957Y0137074D02*
X0076700Y0137074D01*
X0076861Y0136975D02*
X0078020Y0136975D01*
X0078084Y0136877D02*
X0077021Y0136877D01*
X0077182Y0136778D02*
X0078147Y0136778D01*
X0078211Y0136680D02*
X0077343Y0136680D01*
X0077504Y0136581D02*
X0078274Y0136581D01*
X0078338Y0136483D02*
X0077664Y0136483D01*
X0077825Y0136384D02*
X0078401Y0136384D01*
X0078465Y0136286D02*
X0077986Y0136286D01*
X0078147Y0136187D02*
X0078529Y0136187D01*
X0078592Y0136089D02*
X0078307Y0136089D01*
X0078468Y0135990D02*
X0078656Y0135990D01*
X0078629Y0135892D02*
X0078719Y0135892D01*
X0075876Y0140719D02*
X0075480Y0140719D01*
X0075316Y0140817D02*
X0076041Y0140817D01*
X0076175Y0140916D02*
X0075182Y0140916D01*
X0075202Y0141014D02*
X0076155Y0141014D01*
X0076134Y0141113D02*
X0075223Y0141113D01*
X0075243Y0141211D02*
X0076114Y0141211D01*
X0075712Y0140620D02*
X0075645Y0140620D01*
D30*
X0074458Y0010900D03*
X0046899Y0010900D03*
D31*
X0060678Y0007691D03*
X0060678Y0014109D03*
D32*
X0020678Y0047600D03*
X0020678Y0052500D03*
X0020678Y0057400D03*
D33*
X0016678Y0139400D03*
D34*
X0025928Y0139400D03*
D35*
X0022260Y0122640D03*
X0022260Y0115160D03*
X0032497Y0115160D03*
X0032497Y0118900D03*
X0032497Y0122640D03*
D36*
X0042078Y0122031D03*
X0042078Y0113369D03*
D37*
X0043226Y0105165D03*
X0043226Y0100835D03*
X0049131Y0100835D03*
X0049131Y0105165D03*
D38*
X0029678Y0032200D03*
X0029678Y0029800D03*
X0031578Y0020500D03*
X0031578Y0018100D03*
D39*
X0024078Y0022500D03*
X0021678Y0022500D03*
D40*
X0029678Y0023446D03*
X0029678Y0026754D03*
D41*
X0027710Y0026084D03*
X0027710Y0024116D03*
X0031647Y0024116D03*
X0031647Y0026084D03*
M02*
